<svg width="75" height="48" viewBox="0 0 75 48" fill="none" xmlns="http://www.w3.org/2000/svg">
<path d="M3.64 9.76C3.59333 9.72 3.55667 9.66333 3.53 9.59C3.50333 9.51667 3.48333 9.43667 3.47 9.35H2.16C2.12 9.51667 2.04667 9.65333 1.94 9.76H3.64ZM3.45 9.16V8.7H2.18V9.16H3.45ZM3.45 8.51V8.06H2.18V8.51H3.45ZM3.45 7.86V7.41H2.18V7.86H3.45ZM3.45 7.22V6.76H2.18V7.22H3.45ZM3.45 6.57V6.11H2.18V6.57H3.45ZM3.45 5.93V5.46H2.18V5.93H3.45ZM3.45 5.28V4.82H2.18V5.28H3.45ZM8.61 9.76L8.32 9.35H6.83C6.86333 9.52333 6.82 9.66 6.7 9.76H8.61ZM8.19 9.16L7.85 8.7H6.45C6.51667 8.79333 6.57333 8.87333 6.62 8.94C6.66667 9.00667 6.71667 9.08 6.77 9.16H8.19ZM3.45 4.64V4.17H2.18V4.64H3.45ZM7.73 8.51L7.39 8.06H5.98L6.3 8.51H7.73ZM7.26 7.86L6.92 7.41H5.51L5.84 7.86H7.26ZM6.8 7.22L6.47 6.76H5.04L5.37 7.22H6.8ZM3.45 3.99V3.52H2.18V3.99H3.45ZM6.33 6.57L6 6.11H5.43L4.91 6.57H6.33ZM1.95 2.91C2.05667 2.99667 2.13 3.14 2.17 3.34H3.47C3.49 3.15333 3.54333 3.01 3.63 2.91H1.95ZM7.24 3.52C7.24667 3.59333 7.24667 3.66667 7.24 3.74C7.24 3.81333 7.23333 3.88667 7.22 3.96H7.4C7.44 3.88667 7.48667 3.81667 7.54 3.75C7.59333 3.67667 7.64667 3.6 7.7 3.52H7.24ZM7 2.92C7.05333 2.97333 7.09333 3.03667 7.12 3.11C7.15333 3.17667 7.18333 3.25333 7.21 3.34H7.85C7.91 3.26 7.97333 3.18667 8.04 3.12C8.11333 3.04667 8.18333 2.98 8.25 2.92H7ZM6.03 10C5.98333 10 5.94667 9.98667 5.92 9.96C5.9 9.92667 5.89 9.89333 5.89 9.86C5.89 9.82 5.9 9.78667 5.92 9.76C5.94667 9.72667 5.98333 9.71 6.03 9.71H6.14C6.32 9.71 6.45667 9.66667 6.55 9.58C6.65 9.48667 6.65 9.37 6.55 9.23L4.73 6.7L4.16 7.2V9.1C4.16 9.32 4.22333 9.47667 4.35 9.57C4.47667 9.66333 4.63667 9.71 4.83 9.71H5.1C5.14667 9.71 5.18 9.72667 5.2 9.76C5.22667 9.78667 5.24 9.82 5.24 9.86C5.24 9.89333 5.22667 9.92667 5.2 9.96C5.18 9.98667 5.14667 10 5.1 10H0.63C0.583333 10 0.546667 9.98667 0.52 9.96C0.5 9.92667 0.49 9.89333 0.49 9.86C0.49 9.82 0.5 9.78667 0.52 9.76C0.546667 9.72667 0.583333 9.71 0.63 9.71H1.29C1.48333 9.71 1.64 9.66333 1.76 9.57C1.88667 9.47667 1.95 9.32 1.95 9.1V3.56C1.95 3.34 1.88667 3.18333 1.76 3.09C1.64 2.99 1.48333 2.94 1.29 2.94H0.63C0.583333 2.94 0.546667 2.92667 0.52 2.9C0.5 2.86667 0.49 2.83333 0.49 2.8C0.49 2.76667 0.5 2.73667 0.52 2.71C0.546667 2.67667 0.583333 2.66 0.63 2.66H5.33C5.37667 2.66 5.41 2.67667 5.43 2.71C5.45667 2.73667 5.47 2.76667 5.47 2.8C5.47 2.83333 5.45667 2.86667 5.43 2.9C5.41 2.92667 5.37667 2.94 5.33 2.94H4.83C4.63667 2.94 4.47667 2.99 4.35 3.09C4.22333 3.18333 4.16 3.34 4.16 3.56V6.88L6.57 4.78C6.74333 4.63333 6.87 4.47 6.95 4.29C7.03667 4.10333 7.07 3.89333 7.05 3.66C7.03667 3.44667 6.96 3.27333 6.82 3.14C6.68 3.00667 6.44 2.94 6.1 2.94C6.05333 2.94 6.01667 2.92667 5.99 2.9C5.97 2.86667 5.96 2.83333 5.96 2.8C5.96 2.76667 5.97 2.73667 5.99 2.71C6.01667 2.67667 6.05333 2.66 6.1 2.66H10.11C10.1567 2.66 10.19 2.67667 10.21 2.71C10.23 2.73667 10.24 2.76667 10.24 2.8C10.24 2.83333 10.23 2.86667 10.21 2.9C10.19 2.92667 10.1567 2.94 10.11 2.94H9.95C9.81667 2.94 9.66333 2.97 9.49 3.03C9.32333 3.09 9.12667 3.18667 8.9 3.32C8.67333 3.45333 8.41333 3.63 8.12 3.85C7.82667 4.06333 7.49333 4.32667 7.12 4.64L6.36 5.28L8.69 8.57C8.94333 8.93 9.22333 9.21 9.53 9.41C9.84333 9.61 10.1667 9.71 10.5 9.71H10.75C10.7967 9.71 10.83 9.72667 10.85 9.76C10.8767 9.78667 10.89 9.82 10.89 9.86C10.89 9.89333 10.8767 9.92667 10.85 9.96C10.83 9.98667 10.7967 10 10.75 10H6.03ZM12.1613 9.74C12.1279 9.64 12.1046 9.51 12.0913 9.35H11.7213C11.6413 9.43667 11.5613 9.51667 11.4813 9.59C11.4013 9.65667 11.3246 9.70667 11.2513 9.74H12.1613ZM12.1813 8.7C12.1213 8.84 12.0179 8.99333 11.8713 9.16H12.0913C12.0979 9.09333 12.1046 9.02 12.1113 8.94C12.1246 8.86 12.1479 8.78 12.1813 8.7ZM17.7213 9.77L17.5213 9.35H16.0113C16.0046 9.42333 15.9879 9.49333 15.9613 9.56C15.9346 9.62667 15.9013 9.69667 15.8613 9.77H17.7213ZM15.0813 7.61L13.9113 5.07L12.7213 7.61H15.0813ZM17.4413 9.16L17.2213 8.7H15.8013L15.9313 8.97C15.9446 9.00333 15.9546 9.03667 15.9613 9.07C15.9746 9.09667 15.9846 9.12667 15.9913 9.16H17.4413ZM17.1213 8.51L16.9113 8.06H15.5013L15.7113 8.51H17.1213ZM16.8213 7.86L16.6013 7.41H15.2113L15.4213 7.86H16.8213ZM16.5113 7.22L16.2912 6.76H14.9213L15.1313 7.22H16.5113ZM16.2013 6.57L15.9913 6.11H14.6213L14.8313 6.57H16.2013ZM15.9013 5.93L15.6813 5.46H14.3313L14.5413 5.93H15.9013ZM15.6013 5.28L15.3813 4.82H14.0413L14.2413 5.28H15.6013ZM15.2813 4.64L15.0713 4.17H14.3213L14.1013 4.64H15.2813ZM14.9813 3.99L14.6913 3.36L14.4113 3.99H14.9813ZM19.3913 9.74C19.4313 9.74 19.4613 9.75333 19.4813 9.78C19.5013 9.80667 19.5113 9.83667 19.5113 9.87C19.5113 9.90333 19.5013 9.93333 19.4813 9.96C19.4613 9.98667 19.4279 10 19.3813 10H14.7413C14.6879 10 14.6513 9.98667 14.6313 9.96C14.6113 9.92667 14.6013 9.89333 14.6013 9.86C14.6013 9.82667 14.6146 9.79667 14.6413 9.77C14.6679 9.73667 14.7046 9.72 14.7513 9.72H15.3313C15.4046 9.72 15.4746 9.71 15.5413 9.69C15.6146 9.67 15.6713 9.63333 15.7113 9.58C15.7513 9.52 15.7779 9.45 15.7913 9.37C15.8046 9.28333 15.7879 9.19 15.7413 9.09L15.2013 7.9H12.5913C12.5713 7.99333 12.5579 8.09667 12.5513 8.21C12.5446 8.32333 12.5446 8.44 12.5513 8.56C12.5646 8.67333 12.5846 8.79 12.6113 8.91C12.6446 9.02333 12.6846 9.12333 12.7313 9.21C12.7913 9.32333 12.8479 9.41333 12.9013 9.48C12.9613 9.54667 13.0313 9.6 13.1113 9.64C13.1913 9.67333 13.2846 9.69667 13.3913 9.71C13.5046 9.71667 13.6379 9.72 13.7913 9.72C13.8313 9.72 13.8613 9.73667 13.8813 9.77C13.9079 9.79667 13.9213 9.82667 13.9213 9.86C13.9213 9.89333 13.9113 9.92667 13.8913 9.96C13.8713 9.98667 13.8379 10 13.7913 10H10.6412C10.5879 10 10.5479 9.98667 10.5212 9.96C10.4879 9.92667 10.4712 9.89333 10.4712 9.86C10.4712 9.82667 10.4846 9.79667 10.5112 9.77C10.5312 9.73667 10.5679 9.72 10.6212 9.72C10.8679 9.72 11.1246 9.59667 11.3913 9.35C11.6646 9.10333 11.9079 8.75667 12.1213 8.31L14.9113 2.39C14.9713 2.26333 15.0346 2.26333 15.1013 2.39L18.2313 8.94C18.2979 9.08667 18.3646 9.21 18.4313 9.31C18.4979 9.40333 18.5779 9.49 18.6713 9.57C18.8313 9.68333 19.0713 9.74 19.3913 9.74ZM22.819 9.76C22.7123 9.65333 22.639 9.51667 22.599 9.35H21.359C21.3323 9.50333 21.259 9.64 21.139 9.76H22.819ZM22.569 9.16V8.7H21.389V9.16H22.569ZM22.569 8.51V8.06H21.389V8.51H22.569ZM22.569 7.86V7.41H21.389V7.86H22.569ZM22.569 7.22V6.76H21.389V7.22H22.569ZM22.569 6.57V6.11H21.389V6.57H22.569ZM22.569 5.93V5.46H21.389V5.93H22.569ZM26.849 9.76L26.679 9.35H25.489L25.669 9.76H26.849ZM22.569 5.28V4.82H21.389V5.28H22.569ZM26.589 9.16L26.389 8.7H25.209L25.409 9.16H26.589ZM26.299 8.51L26.089 8.06H24.929L25.139 8.51H26.299ZM22.569 4.64V4.17H21.389V4.64H22.569ZM26.009 7.86L25.809 7.41H24.649L24.859 7.86H26.009ZM25.729 7.22L25.519 6.76H24.379L24.579 7.22H25.729ZM22.569 3.99V3.52H21.389V3.99H22.569ZM22.569 3.34V2.91H21.159C21.2657 2.99667 21.3357 3.14 21.369 3.34H22.569ZM25.179 6.11C24.9323 6.31 24.619 6.42333 24.239 6.45L24.299 6.57H25.439L25.319 6.32C25.5457 6.28 25.7723 6.21 25.999 6.11H25.179ZM25.479 4.53C25.479 4.26333 25.4523 4.03 25.399 3.83C25.3523 3.62333 25.2857 3.45333 25.199 3.32C25.119 3.18 25.0223 3.07667 24.909 3.01C24.8023 2.94333 24.6923 2.91 24.579 2.91H23.279V6.21H23.969C24.2023 6.21 24.4123 6.18667 24.599 6.14C24.7857 6.09333 24.9423 6.01 25.069 5.89C25.2023 5.76333 25.3023 5.59333 25.369 5.38C25.4423 5.16 25.479 4.87667 25.479 4.53ZM25.609 5.46C25.5757 5.55333 25.539 5.64 25.499 5.72C25.4657 5.79333 25.4223 5.86333 25.369 5.93H26.349C26.4423 5.87 26.529 5.80333 26.609 5.73C26.689 5.65 26.7623 5.56 26.829 5.46H25.609ZM25.699 4.82C25.699 4.9 25.6957 4.98 25.689 5.06C25.6823 5.13333 25.669 5.20667 25.649 5.28H26.929C26.9623 5.20667 26.989 5.13667 27.009 5.07C27.029 4.99667 27.0457 4.91333 27.059 4.82H25.699ZM27.069 4.64C27.069 4.54 27.0657 4.45333 27.059 4.38C27.0523 4.30667 27.039 4.23667 27.019 4.17H25.689C25.6957 4.24333 25.699 4.31667 25.699 4.39C25.699 4.46333 25.699 4.54667 25.699 4.64H27.069ZM26.979 3.99C26.9257 3.81667 26.8523 3.66 26.759 3.52H25.559C25.5923 3.59333 25.6123 3.67 25.619 3.75C25.6323 3.82333 25.6457 3.90333 25.659 3.99H26.979ZM26.609 3.34C26.4957 3.20667 26.3623 3.10333 26.209 3.03C26.0557 2.95 25.8857 2.91 25.699 2.91H25.159C25.299 3.01 25.409 3.15333 25.489 3.34H26.609ZM25.539 10L24.009 6.47H23.279V8.98C23.279 9.21333 23.349 9.39333 23.489 9.52C23.6357 9.64667 23.809 9.71 24.009 9.71H24.279C24.3257 9.71 24.359 9.72667 24.379 9.76C24.4057 9.78667 24.419 9.82 24.419 9.86C24.419 9.89333 24.4057 9.92667 24.379 9.96C24.359 9.98667 24.3257 10 24.279 10H19.839C19.799 10 19.7657 9.98667 19.739 9.96C19.719 9.92667 19.709 9.89333 19.709 9.86C19.709 9.82 19.719 9.78667 19.739 9.76C19.7657 9.72667 19.799 9.71 19.839 9.71H20.459C20.6523 9.71 20.8157 9.66333 20.949 9.57C21.089 9.47 21.159 9.29333 21.159 9.04V3.56C21.159 3.34 21.0957 3.18333 20.969 3.09C20.849 2.99 20.6923 2.94 20.499 2.94H19.799C19.7523 2.94 19.7157 2.92667 19.689 2.9C19.669 2.86667 19.659 2.83333 19.659 2.8C19.659 2.76667 19.669 2.73667 19.689 2.71C19.7157 2.67667 19.7523 2.66 19.799 2.66H26.069C26.269 2.66 26.4723 2.70333 26.679 2.79C26.8923 2.87667 27.0823 3 27.249 3.16C27.4223 3.32 27.5623 3.51333 27.669 3.74C27.7823 3.96 27.839 4.20333 27.839 4.47C27.839 4.74333 27.7923 4.99 27.699 5.21C27.6123 5.42333 27.4923 5.61 27.339 5.77C27.1857 5.93 27.0023 6.06333 26.789 6.17C26.5823 6.27 26.359 6.34 26.119 6.38L27.299 9.1C27.3857 9.29333 27.4823 9.44333 27.589 9.55C27.7023 9.65667 27.8557 9.71 28.049 9.71H28.379C28.4257 9.71 28.459 9.72667 28.479 9.76C28.5057 9.78667 28.519 9.82 28.519 9.86C28.519 9.89333 28.5057 9.92667 28.479 9.96C28.459 9.98667 28.4257 10 28.379 10H25.539ZM32.2428 9.76C32.1361 9.65333 32.0628 9.51667 32.0228 9.35H30.7828C30.7561 9.50333 30.6828 9.64 30.5628 9.76H32.2428ZM31.9928 9.16V8.7H30.8128V9.16H31.9928ZM31.9928 8.51V8.06H30.8128V8.51H31.9928ZM31.9928 7.86V7.41H30.8128V7.86H31.9928ZM31.9928 7.22V6.76H30.8128V7.22H31.9928ZM31.9928 6.57V6.11H30.8128V6.57H31.9928ZM31.9928 5.93V5.46H30.8128V5.93H31.9928ZM36.2728 9.76L36.1028 9.35H34.9128L35.0928 9.76H36.2728ZM31.9928 5.28V4.82H30.8128V5.28H31.9928ZM36.0128 9.16L35.8128 8.7H34.6328L34.8328 9.16H36.0128ZM35.7228 8.51L35.5128 8.06H34.3528L34.5628 8.51H35.7228ZM31.9928 4.64V4.17H30.8128V4.64H31.9928ZM35.4328 7.86L35.2328 7.41H34.0728L34.2828 7.86H35.4328ZM35.1528 7.22L34.9428 6.76H33.8028L34.0028 7.22H35.1528ZM31.9928 3.99V3.52H30.8128V3.99H31.9928ZM31.9928 3.34V2.91H30.5828C30.6895 2.99667 30.7595 3.14 30.7928 3.34H31.9928ZM34.6028 6.11C34.3561 6.31 34.0428 6.42333 33.6628 6.45L33.7228 6.57H34.8628L34.7428 6.32C34.9695 6.28 35.1961 6.21 35.4228 6.11H34.6028ZM34.9028 4.53C34.9028 4.26333 34.8761 4.03 34.8228 3.83C34.7761 3.62333 34.7095 3.45333 34.6228 3.32C34.5428 3.18 34.4461 3.07667 34.3328 3.01C34.2261 2.94333 34.1161 2.91 34.0028 2.91H32.7028V6.21H33.3928C33.6261 6.21 33.8361 6.18667 34.0228 6.14C34.2095 6.09333 34.3661 6.01 34.4928 5.89C34.6261 5.76333 34.7261 5.59333 34.7928 5.38C34.8661 5.16 34.9028 4.87667 34.9028 4.53ZM35.0328 5.46C34.9995 5.55333 34.9628 5.64 34.9228 5.72C34.8895 5.79333 34.8461 5.86333 34.7928 5.93H35.7728C35.8661 5.87 35.9528 5.80333 36.0328 5.73C36.1128 5.65 36.1861 5.56 36.2528 5.46H35.0328ZM35.1228 4.82C35.1228 4.9 35.1195 4.98 35.1128 5.06C35.1061 5.13333 35.0928 5.20667 35.0728 5.28H36.3528C36.3861 5.20667 36.4128 5.13667 36.4328 5.07C36.4528 4.99667 36.4695 4.91333 36.4828 4.82H35.1228ZM36.4928 4.64C36.4928 4.54 36.4895 4.45333 36.4828 4.38C36.4761 4.30667 36.4628 4.23667 36.4428 4.17H35.1128C35.1195 4.24333 35.1228 4.31667 35.1228 4.39C35.1228 4.46333 35.1228 4.54667 35.1228 4.64H36.4928ZM36.4028 3.99C36.3495 3.81667 36.2761 3.66 36.1828 3.52H34.9828C35.0161 3.59333 35.0361 3.67 35.0428 3.75C35.0561 3.82333 35.0695 3.90333 35.0828 3.99H36.4028ZM36.0328 3.34C35.9195 3.20667 35.7861 3.10333 35.6328 3.03C35.4795 2.95 35.3095 2.91 35.1228 2.91H34.5828C34.7228 3.01 34.8328 3.15333 34.9128 3.34H36.0328ZM34.9628 10L33.4328 6.47H32.7028V8.98C32.7028 9.21333 32.7728 9.39333 32.9128 9.52C33.0595 9.64667 33.2328 9.71 33.4328 9.71H33.7028C33.7495 9.71 33.7828 9.72667 33.8028 9.76C33.8295 9.78667 33.8428 9.82 33.8428 9.86C33.8428 9.89333 33.8295 9.92667 33.8028 9.96C33.7828 9.98667 33.7495 10 33.7028 10H29.2628C29.2228 10 29.1895 9.98667 29.1628 9.96C29.1428 9.92667 29.1328 9.89333 29.1328 9.86C29.1328 9.82 29.1428 9.78667 29.1628 9.76C29.1895 9.72667 29.2228 9.71 29.2628 9.71H29.8828C30.0761 9.71 30.2395 9.66333 30.3728 9.57C30.5128 9.47 30.5828 9.29333 30.5828 9.04V3.56C30.5828 3.34 30.5195 3.18333 30.3928 3.09C30.2728 2.99 30.1161 2.94 29.9228 2.94H29.2228C29.1761 2.94 29.1395 2.92667 29.1128 2.9C29.0928 2.86667 29.0828 2.83333 29.0828 2.8C29.0828 2.76667 29.0928 2.73667 29.1128 2.71C29.1395 2.67667 29.1761 2.66 29.2228 2.66H35.4928C35.6928 2.66 35.8961 2.70333 36.1028 2.79C36.3161 2.87667 36.5061 3 36.6728 3.16C36.8461 3.32 36.9861 3.51333 37.0928 3.74C37.2061 3.96 37.2628 4.20333 37.2628 4.47C37.2628 4.74333 37.2161 4.99 37.1228 5.21C37.0361 5.42333 36.9161 5.61 36.7628 5.77C36.6095 5.93 36.4261 6.06333 36.2128 6.17C36.0061 6.27 35.7828 6.34 35.5428 6.38L36.7228 9.1C36.8095 9.29333 36.9061 9.44333 37.0128 9.55C37.1261 9.65667 37.2795 9.71 37.4728 9.71H37.8028C37.8495 9.71 37.8828 9.72667 37.9028 9.76C37.9295 9.78667 37.9428 9.82 37.9428 9.86C37.9428 9.89333 37.9295 9.92667 37.9028 9.96C37.8828 9.98667 37.8495 10 37.8028 10H34.9628ZM42.0366 9.93C41.9033 9.85667 41.78 9.77667 41.6666 9.69C41.56 9.59667 41.47 9.48333 41.3966 9.35H40.6666C41.0333 9.68333 41.49 9.87667 42.0366 9.93ZM41.2966 9.16C41.2633 9.1 41.2366 9.03 41.2166 8.95C41.2033 8.87 41.19 8.78667 41.1766 8.7H40.1666C40.2066 8.78 40.2533 8.86 40.3066 8.94C40.36 9.02 40.4166 9.09333 40.4766 9.16H41.2966ZM41.1566 8.51L41.1466 8.06H39.9566C39.97 8.13333 39.9866 8.21 40.0066 8.29C40.0333 8.37 40.06 8.44333 40.0866 8.51H41.1566ZM41.1466 7.86V7.41H39.9166V7.86H41.1466ZM41.1466 7.22V6.76H39.9166V7.22H41.1466ZM41.1466 6.57V6.11H39.9166V6.57H41.1466ZM41.1466 5.93V5.46H39.9166V5.93H41.1466ZM41.1466 5.28V4.82H39.9166V5.28H41.1466ZM41.1466 4.64V4.17H39.9166V4.64H41.1466ZM41.1466 3.99V3.52H39.9166V3.99H41.1466ZM39.6866 2.91C39.7933 2.99667 39.8633 3.14 39.8966 3.34H41.1666C41.18 3.24 41.2 3.15667 41.2266 3.09C41.26 3.01667 41.2966 2.95667 41.3366 2.91H39.6866ZM45.2766 3.28C45.3766 3.45333 45.4566 3.68667 45.5166 3.98C45.53 3.86667 45.5433 3.75 45.5566 3.63C45.5766 3.51 45.5966 3.39333 45.6166 3.28H45.2766ZM44.9366 2.91C44.9766 2.93667 45.0133 2.96667 45.0466 3C45.08 3.03333 45.1133 3.06667 45.1466 3.1H45.6666C45.68 3.06667 45.6866 3.03333 45.6866 3C45.6933 2.96667 45.7033 2.93667 45.7166 2.91H44.9366ZM46.9766 2.93C46.77 2.93 46.5833 2.99333 46.4166 3.12C46.2566 3.24 46.12 3.40333 46.0066 3.61C45.9 3.81 45.8166 4.04667 45.7566 4.32C45.7033 4.59333 45.6766 4.88 45.6766 5.18V7.24C45.6766 7.66 45.6133 8.05333 45.4866 8.42C45.36 8.78667 45.17 9.10667 44.9166 9.38C44.67 9.64667 44.3566 9.85667 43.9766 10.01C43.6033 10.1633 43.1666 10.24 42.6666 10.24C42.2466 10.24 41.8566 10.1833 41.4966 10.07C41.1366 9.95667 40.82 9.79 40.5466 9.57C40.28 9.34333 40.07 9.06667 39.9166 8.74C39.7633 8.40667 39.6866 8.02333 39.6866 7.59V3.56C39.6866 3.34 39.6233 3.18333 39.4966 3.09C39.3766 2.99 39.22 2.94 39.0266 2.94H38.4666C38.42 2.94 38.3833 2.92667 38.3566 2.9C38.3366 2.86667 38.3266 2.83333 38.3266 2.8C38.3266 2.76667 38.3366 2.73667 38.3566 2.71C38.3833 2.67667 38.42 2.66 38.4666 2.66H43.1666C43.2066 2.66 43.2366 2.67667 43.2566 2.71C43.2833 2.73667 43.2966 2.76667 43.2966 2.8C43.2966 2.83333 43.2833 2.86667 43.2566 2.9C43.2366 2.92667 43.2066 2.94 43.1666 2.94H42.6366C42.43 2.94 42.25 3 42.0966 3.12C41.9433 3.24 41.8666 3.42 41.8666 3.66V8.03C41.8666 8.39 41.9166 8.68667 42.0166 8.92C42.1233 9.15333 42.2533 9.33667 42.4066 9.47C42.56 9.60333 42.7266 9.69667 42.9066 9.75C43.0933 9.79667 43.2633 9.82 43.4166 9.82C43.65 9.82 43.8866 9.76333 44.1266 9.65C44.3666 9.53 44.5833 9.36333 44.7766 9.15C44.9766 8.93667 45.1366 8.68 45.2566 8.38C45.3833 8.08 45.4466 7.74667 45.4466 7.38V5.15C45.4466 4.42333 45.34 3.87333 45.1266 3.5C44.92 3.12 44.6166 2.93 44.2166 2.93C44.17 2.93 44.1333 2.91667 44.1066 2.89C44.08 2.86333 44.0666 2.83333 44.0666 2.8C44.0666 2.76 44.0766 2.72667 44.0966 2.7C44.1233 2.67333 44.1633 2.66 44.2166 2.66H46.9666C47.0133 2.66 47.05 2.67333 47.0766 2.7C47.1033 2.72667 47.1166 2.76 47.1166 2.8C47.1166 2.83333 47.1033 2.86333 47.0766 2.89C47.0566 2.91667 47.0233 2.93 46.9766 2.93ZM48.7568 9.2H48.2368V9.74L48.7568 9.2ZM48.9368 9.02C48.8168 8.9 48.6968 8.78333 48.5768 8.67C48.4635 8.55667 48.3501 8.43667 48.2368 8.31V9.02H48.9368ZM49.1768 5.28C49.0768 5.21333 48.9868 5.14333 48.9068 5.07C48.8335 4.99667 48.7701 4.91333 48.7168 4.82H48.0268V5.02C48.0268 5.06 48.0268 5.10333 48.0268 5.15C48.0268 5.19667 48.0301 5.24 48.0368 5.28H49.1768ZM48.6068 4.64C48.5801 4.56 48.5568 4.48333 48.5368 4.41C48.5235 4.33667 48.5135 4.25667 48.5068 4.17H48.1868C48.1535 4.24333 48.1235 4.31667 48.0968 4.39C48.0768 4.46333 48.0601 4.54667 48.0468 4.64H48.6068ZM51.3068 5.93V5.91C51.1935 5.88333 51.0801 5.86 50.9668 5.84C50.8601 5.82 50.7568 5.8 50.6568 5.78C50.4435 5.73333 50.2435 5.68667 50.0568 5.64C49.8701 5.59333 49.7001 5.53333 49.5468 5.46H48.0668C48.0335 5.46 48.0201 5.47667 48.0268 5.51C48.0335 5.54333 48.0468 5.58667 48.0668 5.64C48.0935 5.68667 48.1235 5.73667 48.1568 5.79C48.1901 5.84333 48.2168 5.89 48.2368 5.93H51.3068ZM48.5568 3.56C48.5235 3.6 48.4768 3.65667 48.4168 3.73C48.3635 3.79667 48.3101 3.88333 48.2568 3.99H48.4968C48.4968 3.92333 48.5035 3.85 48.5168 3.77C48.5301 3.69 48.5435 3.62 48.5568 3.56ZM54.4068 7.22C54.3601 7.14 54.3101 7.06 54.2568 6.98C54.2035 6.9 54.1435 6.82667 54.0768 6.76H49.0868C49.2535 6.85333 49.4368 6.93333 49.6368 7C49.8368 7.06667 50.0635 7.12333 50.3168 7.17C50.3768 7.18333 50.4335 7.19333 50.4868 7.2C50.5468 7.2 50.6035 7.20667 50.6568 7.22H54.4068ZM53.8768 6.57C53.7768 6.49667 53.6635 6.43 53.5368 6.37C53.4168 6.31 53.2835 6.26333 53.1368 6.23C53.0435 6.21667 52.9401 6.2 52.8268 6.18C52.7201 6.16 52.6001 6.13667 52.4668 6.11H48.3368C48.4035 6.19667 48.4701 6.28 48.5368 6.36C48.6101 6.43333 48.6935 6.50333 48.7868 6.57H53.8768ZM54.2168 8.7C54.2235 8.73333 54.2268 8.78333 54.2268 8.85C54.2268 8.95667 54.2101 9.06667 54.1768 9.18C54.2435 9.10667 54.3035 9.03333 54.3568 8.96C54.4168 8.88 54.4635 8.79333 54.4968 8.7H54.2168ZM54.5868 7.86C54.5735 7.71333 54.5368 7.56333 54.4768 7.41H52.2468V7.43C52.5535 7.48333 52.8268 7.54667 53.0668 7.62C53.3068 7.68667 53.5101 7.76667 53.6768 7.86H54.5868ZM53.9168 8.06C54.0568 8.2 54.1501 8.35 54.1968 8.51H54.5468C54.5668 8.45 54.5801 8.38 54.5868 8.3C54.5935 8.22 54.5968 8.14 54.5968 8.06H53.9168ZM53.9268 3.81H53.5268C53.6001 3.87667 53.6668 3.94333 53.7268 4.01C53.7935 4.07 53.8601 4.12667 53.9268 4.18V3.81ZM53.9268 3.63V3.26L53.5468 3.63H53.9268ZM55.1668 7.8C55.1668 8.27333 55.0701 8.66667 54.8768 8.98C54.6835 9.28667 54.4401 9.53333 54.1468 9.72C53.8535 9.90667 53.5335 10.0367 53.1868 10.11C52.8401 10.19 52.5168 10.23 52.2168 10.23C51.9168 10.23 51.6335 10.1933 51.3668 10.12C51.1001 10.0467 50.8468 9.95 50.6068 9.83C50.3735 9.71 50.1535 9.57667 49.9468 9.43C49.7401 9.28333 49.5501 9.13667 49.3768 8.99L48.1668 10.18C48.1135 10.2333 48.0768 10.2533 48.0568 10.24C48.0368 10.2267 48.0268 10.1867 48.0268 10.12V7.2C48.0268 7.12667 48.0468 7.09333 48.0868 7.1C48.1268 7.10667 48.1668 7.13667 48.2068 7.19C48.4268 7.49667 48.6768 7.81333 48.9568 8.14C49.2368 8.46 49.5435 8.75333 49.8768 9.02C50.2101 9.28667 50.5701 9.50667 50.9568 9.68C51.3501 9.84667 51.7701 9.93 52.2168 9.93C52.7835 9.93 53.2268 9.82667 53.5468 9.62C53.8668 9.40667 54.0268 9.15 54.0268 8.85C54.0268 8.51 53.8701 8.25 53.5568 8.07C53.2435 7.88333 52.8001 7.75 52.2268 7.67C51.9535 7.63 51.6535 7.59333 51.3268 7.56C51.0001 7.52667 50.6568 7.47667 50.2968 7.41C49.4901 7.27 48.8735 6.99333 48.4468 6.58C48.0268 6.16667 47.8168 5.64667 47.8168 5.02C47.8168 4.63333 47.8901 4.28333 48.0368 3.97C48.1901 3.65 48.3935 3.37667 48.6468 3.15C48.9001 2.91667 49.1935 2.73667 49.5268 2.61C49.8601 2.48333 50.2101 2.42 50.5768 2.42C50.8368 2.42 51.0835 2.45 51.3168 2.51C51.5568 2.56333 51.7868 2.64 52.0068 2.74C52.2268 2.84 52.4401 2.96 52.6468 3.1C52.8535 3.23333 53.0535 3.38 53.2468 3.54L54.2768 2.52C54.3301 2.47333 54.3735 2.46333 54.4068 2.49C54.4401 2.51 54.4568 2.55667 54.4568 2.63V5.24C54.4568 5.31333 54.4435 5.35333 54.4168 5.36C54.3901 5.36 54.3568 5.32667 54.3168 5.26C53.9301 4.67333 53.5568 4.21333 53.1968 3.88C52.8435 3.54667 52.5101 3.29667 52.1968 3.13C51.8901 2.96333 51.6101 2.86 51.3568 2.82C51.1101 2.78 50.8968 2.76 50.7168 2.76C50.5235 2.76 50.3235 2.78333 50.1168 2.83C49.9168 2.87 49.7301 2.93667 49.5568 3.03C49.3901 3.11667 49.2501 3.23 49.1368 3.37C49.0301 3.51 48.9768 3.67333 48.9768 3.86C48.9768 3.98 49.0001 4.09 49.0468 4.19C49.1001 4.29 49.1901 4.38333 49.3168 4.47C49.4501 4.55667 49.6301 4.64 49.8568 4.72C50.0835 4.8 50.3701 4.87667 50.7168 4.95C50.8968 4.99 51.0901 5.03 51.2968 5.07C51.5101 5.10333 51.7235 5.14 51.9368 5.18C52.1568 5.22 52.3701 5.26333 52.5768 5.31C52.7901 5.35 52.9835 5.39 53.1568 5.43C53.4568 5.51 53.7301 5.61333 53.9768 5.74C54.2301 5.86 54.4435 6.01667 54.6168 6.21C54.7901 6.39667 54.9235 6.62333 55.0168 6.89C55.1168 7.15 55.1668 7.45333 55.1668 7.8ZM58.8862 9.76V9.35H57.6862C57.6462 9.51667 57.5728 9.65333 57.4662 9.76H58.8862ZM58.8862 9.16V8.7H57.7062V9.16H58.8862ZM58.8862 8.51V8.06H57.7062V8.51H58.8862ZM58.8862 7.86V7.41H57.7062V7.86H58.8862ZM58.8862 7.22V6.76H57.7062V7.22H58.8862ZM58.8862 6.57V6.11H57.7062V6.57H58.8862ZM58.8862 5.93V5.46H57.7062V5.93H58.8862ZM63.0762 9.76V9.35H62.2262C62.0395 9.50333 61.8328 9.64 61.6062 9.76H63.0762ZM58.8862 5.28V4.82H57.7062V5.28H58.8862ZM58.8862 4.64V4.17H57.7062V4.64H58.8862ZM63.0762 9.16V8.52C62.9695 8.64 62.8628 8.75333 62.7562 8.86C62.6562 8.96667 62.5528 9.06667 62.4462 9.16H63.0762ZM58.8862 3.99V3.52H57.7062V3.99H58.8862ZM61.3062 6.11H60.9262V6.33C60.9928 6.37667 61.0595 6.43 61.1262 6.49C61.1995 6.55 61.2595 6.60667 61.3062 6.66V6.11ZM58.8862 3.34V2.91H57.4762C57.5828 2.99667 57.6562 3.14 57.6962 3.34H58.8862ZM61.3062 5.93V5.46C61.2595 5.53333 61.1995 5.6 61.1262 5.66C61.0595 5.72 60.9928 5.77333 60.9262 5.82V5.93H61.3062ZM63.0062 3.52H62.4862C62.5728 3.60667 62.6562 3.69667 62.7362 3.79C62.8228 3.87667 62.9128 3.97333 63.0062 4.08V3.52ZM63.0062 3.34V2.92H61.6462C61.7595 2.99333 61.8662 3.06333 61.9662 3.13C62.0728 3.19 62.1728 3.26 62.2662 3.34H63.0062ZM63.8562 10H56.1562C56.1095 10 56.0728 9.98667 56.0462 9.96C56.0262 9.92667 56.0162 9.89333 56.0162 9.86C56.0162 9.82 56.0262 9.78667 56.0462 9.76C56.0728 9.72667 56.1095 9.71 56.1562 9.71H56.8162C57.0095 9.71 57.1662 9.66333 57.2862 9.57C57.4128 9.47667 57.4762 9.32 57.4762 9.1V3.56C57.4762 3.34 57.4128 3.18333 57.2862 3.09C57.1662 2.99 57.0095 2.94 56.8162 2.94H56.1562C56.1095 2.94 56.0728 2.92667 56.0462 2.9C56.0262 2.86667 56.0162 2.83333 56.0162 2.8C56.0162 2.76667 56.0262 2.73667 56.0462 2.71C56.0728 2.67667 56.1095 2.66 56.1562 2.66H63.7862V5.14C63.7862 5.25333 63.7595 5.31667 63.7062 5.33C63.6528 5.33667 63.5928 5.28667 63.5262 5.18C63.3862 4.94667 63.2128 4.69667 63.0062 4.43C62.8062 4.16333 62.5828 3.92 62.3362 3.7C62.0962 3.47333 61.8428 3.28667 61.5762 3.14C61.3095 2.98667 61.0462 2.91 60.7862 2.91H59.5962V5.93H60.0562C60.2295 5.93 60.3928 5.89333 60.5462 5.82C60.6995 5.74667 60.8428 5.65 60.9762 5.53C61.1095 5.41 61.2295 5.27667 61.3362 5.13C61.4428 4.97667 61.5362 4.82667 61.6162 4.68C61.6428 4.62667 61.6762 4.60333 61.7162 4.61C61.7628 4.61 61.7862 4.64667 61.7862 4.72V7.43C61.7862 7.50333 61.7662 7.54333 61.7262 7.55C61.6862 7.55 61.6495 7.52333 61.6162 7.47C61.5428 7.32333 61.4528 7.17667 61.3462 7.03C61.2395 6.87667 61.1195 6.74 60.9862 6.62C60.8528 6.5 60.7062 6.40333 60.5462 6.33C60.3928 6.25 60.2295 6.21 60.0562 6.21H59.5962V9.76H60.6762C60.9495 9.76 61.2295 9.68333 61.5162 9.53C61.8095 9.37 62.0862 9.17333 62.3462 8.94C62.6128 8.7 62.8562 8.44 63.0762 8.16C63.2962 7.88 63.4728 7.62 63.6062 7.38C63.6728 7.26 63.7295 7.20667 63.7762 7.22C63.8295 7.22667 63.8562 7.28667 63.8562 7.4V10ZM68.092 9.76C68.052 9.72 68.0153 9.66333 67.982 9.59C67.9553 9.51667 67.932 9.43667 67.912 9.35H66.622C66.5886 9.51667 66.5153 9.65333 66.402 9.76H68.092ZM67.902 9.16V8.7H66.652V9.16H67.902ZM67.902 8.51V8.06H66.652V8.51H67.902ZM67.902 7.86V7.41H66.652V7.86H67.902ZM67.902 7.22V6.76H66.652V7.22H67.902ZM67.902 6.57V6.11H66.652V6.57H67.902ZM67.902 5.93V5.46H66.652V5.93H67.902ZM72.022 9.76V9.35H71.172C71.0786 9.42333 70.9786 9.49667 70.872 9.57C70.772 9.63667 70.6653 9.7 70.552 9.76H72.022ZM67.902 5.28V4.82H66.652V5.28H67.902ZM72.022 9.16V8.52C71.9086 8.64 71.802 8.75333 71.702 8.86C71.602 8.96667 71.502 9.06667 71.402 9.16H72.022ZM67.902 4.64V4.17H66.652V4.64H67.902ZM67.902 3.99V3.52H66.652V3.99H67.902ZM66.422 2.91C66.5286 2.99667 66.5986 3.14 66.632 3.34H67.912C67.9253 3.24 67.9486 3.15667 67.982 3.09C68.0153 3.01667 68.0486 2.95667 68.082 2.91H66.422ZM72.802 10H65.072C65.0253 10 64.9886 9.98667 64.962 9.96C64.942 9.92667 64.932 9.89333 64.932 9.86C64.932 9.82 64.942 9.78667 64.962 9.76C64.9886 9.72667 65.0253 9.71 65.072 9.71H65.762C65.9553 9.71 66.112 9.66333 66.232 9.57C66.3586 9.47667 66.422 9.32 66.422 9.1V3.56C66.422 3.34 66.3586 3.18333 66.232 3.09C66.112 2.99 65.9553 2.94 65.762 2.94H65.072C65.0253 2.94 64.9886 2.92667 64.962 2.9C64.942 2.86667 64.932 2.83333 64.932 2.8C64.932 2.76667 64.942 2.73667 64.962 2.71C64.9886 2.67667 65.0253 2.66 65.072 2.66H69.972C70.0186 2.66 70.052 2.67667 70.072 2.71C70.0986 2.73667 70.112 2.76667 70.112 2.8C70.112 2.83333 70.0986 2.86667 70.072 2.9C70.052 2.92667 70.0186 2.94 69.972 2.94H69.282C69.0886 2.94 68.9286 2.99 68.802 3.09C68.6753 3.18333 68.612 3.34 68.612 3.56V9.3C68.612 9.45333 68.6486 9.56333 68.722 9.63C68.802 9.69 68.8886 9.72 68.982 9.72H69.612C69.8853 9.72 70.1686 9.64333 70.462 9.49C70.7553 9.33667 71.032 9.14667 71.292 8.92C71.5586 8.68667 71.802 8.43333 72.022 8.16C72.242 7.88 72.4186 7.62 72.552 7.38C72.6186 7.26 72.6753 7.20667 72.722 7.22C72.7753 7.22667 72.802 7.28667 72.802 7.4V10Z" fill="#E55DF5"/>
<path d="M68.5972 12.9745L36.8179 34.8384L4.62991 12.9745L68.5972 12.9745Z" stroke="#E55DF5" stroke-width="2.73657"/>
<path d="M68.5972 18.5396L36.8179 40.4035L4.62991 18.5396L68.5972 18.5396Z" stroke="#E55DF5" stroke-width="2.73657"/>
<path d="M68.5972 24.1055L36.8179 45.9694L4.62991 24.1055L68.5972 24.1055Z" stroke="#E55DF5" stroke-width="2.73657"/>
</svg>
