<?xml version="1.0" encoding="utf-8"?>
<!-- Generator: Adobe Illustrator 28.2.0, SVG Export Plug-In . SVG Version: 6.00 Build 0)  -->
<svg version="1.1" id="Layer_12" xmlns="http://www.w3.org/2000/svg" xmlns:xlink="http://www.w3.org/1999/xlink" x="0px" y="0px"
	 viewBox="0 0 512 512" style="enable-background:new 0 0 512 512;" xml:space="preserve">
<style type="text/css">
	.st0{fill-rule:evenodd;clip-rule:evenodd;fill:#8C1692;}
</style>
<path class="st0" d="M512,303.8c0,44.2-35.8,80-80,80h-32c-8.8,0-16-7.2-16-16s7.2-16,16-16h32c26.5,0,48-21.5,48-48s-21.5-48-48-48
	h-0.2c-20.8,0-38.5-13.2-45.2-31.8c0-0.1-0.2-0.2-0.2-0.4c-12.5-35.1-44.7-60.8-83.4-63.5c-8.4,0.5-15,7.4-15,15.9v191.7
	c0,8.8-7.2,16-16,16s-16-7.2-16-16V176.1c0-26.3,21.2-47.6,47.4-47.9c52.2,3,96,37.3,112.9,84.4c0.1,0.1,0.2,0.2,0.3,0.2
	c2.1,6.4,8.1,11,15.2,11h0.2c0.9,0,1.8,0.1,2.7,0.1c0.2,0,0.4,0,0.5,0C477.9,225.7,512,260.7,512,303.8L512,303.8z M208,383.8
	c-8.8,0-16-7.2-16-16v-176c0-8.8,7.2-16,16-16s16,7.2,16,16v176C224,376.7,216.8,383.8,208,383.8L208,383.8z M144,383.8
	c-8.8,0-16-7.2-16-16v-184c0-8.8,7.2-16,16-16s16,7.2,16,16v184C160,376.7,152.8,383.8,144,383.8L144,383.8z M80,383.8
	c-8.8,0-16-7.2-16-16v-128c0-8.8,7.2-16,16-16s16,7.2,16,16v128C96,376.7,88.8,383.8,80,383.8L80,383.8z M16,351.8
	c-8.8,0-16-7.2-16-16v-64c0-8.8,7.2-16,16-16s16,7.2,16,16v64C32,344.7,24.8,351.8,16,351.8L16,351.8z M336,351.8
	c8.8,0,16,7.2,16,16s-7.2,16-16,16s-16-7.2-16-16S327.2,351.8,336,351.8L336,351.8z"/>
</svg>
