<?xml version="1.0" encoding="UTF-8"?><svg id="Layer_1" xmlns="http://www.w3.org/2000/svg" viewBox="0 0 1590 480"><defs><style>.cls-1{stroke-miterlimit:10;stroke-width:2px;}.cls-1,.cls-2{fill:none;stroke:#000;}.cls-3{fill:#e55df5;}.cls-3,.cls-4,.cls-5{stroke-width:0px;}.cls-4{fill:#000;}.cls-5{fill:#212121;}.cls-2{stroke-width:2.74px;}</style></defs><polygon class="cls-3" points="79.6 11.5 1506.41 15.5 1516.44 472 79.6 472 79.6 11.5"/><path class="cls-4" d="M187.32,429.79c-.43,0-.75-.13-.97-.4-.22-.27-.32-.57-.32-.9s.11-.63.32-.9c.21-.27.54-.4.97-.4h1.02c1.66,0,2.94-.4,3.83-1.21.89-.81.88-1.84-.05-3.09l-16.81-22.7-5.26,4.49v17.05c0,1.97.58,3.38,1.75,4.22,1.17.84,2.65,1.26,4.43,1.26h2.49c.43,0,.75.13.97.4.21.27.32.57.32.9s-.11.63-.32.9c-.22.27-.54.4-.97.4h-41.29c-.43,0-.75-.13-.97-.4-.22-.27-.32-.57-.32-.9s.11-.63.32-.9c.21-.27.54-.4.97-.4h6.1c1.79,0,3.25-.42,4.39-1.26,1.14-.84,1.71-2.24,1.71-4.22v-49.71c0-1.97-.57-3.39-1.71-4.26-1.14-.87-2.6-1.3-4.39-1.3h-6.1c-.43,0-.75-.13-.97-.4-.22-.27-.32-.55-.32-.85s.11-.58.32-.85c.21-.27.54-.4.97-.4h43.41c.43,0,.75.13.97.4.22.27.32.55.32.85s-.11.58-.32.85c-.22.27-.54.4-.97.4h-4.62c-1.79,0-3.26.43-4.43,1.3-1.17.87-1.75,2.29-1.75,4.26v29.79l22.26-18.84c1.6-1.31,2.79-2.79,3.56-4.44.77-1.64,1.06-3.51.88-5.61-.12-1.91-.83-3.47-2.12-4.67-1.29-1.2-3.51-1.79-6.65-1.79-.43,0-.75-.13-.97-.4-.22-.27-.32-.55-.32-.85s.11-.58.32-.85c.21-.27.54-.4.97-.4h37.04c.43,0,.74.13.92.4.18.27.28.55.28.85s-.09.58-.28.85-.49.4-.92.4h-1.48c-1.23,0-2.63.27-4.2.81-1.57.54-3.4,1.41-5.5,2.6-2.09,1.2-4.5,2.77-7.2,4.71-2.71,1.94-5.79,4.32-9.24,7.13l-7.02,5.74,21.52,29.52c2.34,3.23,4.94,5.74,7.8,7.54,2.86,1.79,5.83,2.69,8.91,2.69h2.31c.43,0,.75.13.97.4.21.27.32.57.32.9s-.11.63-.32.9c-.22.27-.54.4-.97.4h-43.59ZM165.24,427.63c-.43-.36-.77-.87-1.02-1.53-.25-.66-.43-1.38-.55-2.15h-12.1c-.37,1.5-1.05,2.72-2.03,3.68h15.7ZM149.63,366.17c.98.78,1.66,2.06,2.03,3.86h12.01c.18-1.67.68-2.96,1.48-3.86h-15.52ZM163.49,375.86v-4.22h-11.73v4.22h11.73ZM163.49,381.7v-4.22h-11.73v4.22h11.73ZM163.49,387.44v-4.13h-11.73v4.13h11.73ZM163.49,393.27v-4.22h-11.73v4.22h11.73ZM163.49,399.01v-4.13h-11.73v4.13h11.73ZM163.49,404.84v-4.13h-11.73v4.13h11.73ZM163.49,410.59v-4.04h-11.73v4.04h11.73ZM163.49,416.42v-4.04h-11.73v4.04h11.73ZM163.49,422.25v-4.13h-11.73v4.13h11.73ZM190.09,399.01l-3.05-4.13h-5.26l-4.8,4.13h13.12ZM194.43,404.84l-3.05-4.13h-13.21l3.05,4.13h13.21ZM198.68,410.59l-3.14-4.04h-13.02l3.05,4.04h13.12ZM203.02,416.42l-3.14-4.04h-13.02l2.96,4.04h13.21ZM207.27,422.25l-3.14-4.13h-12.93c.61.84,1.14,1.56,1.57,2.15.43.6.89,1.26,1.39,1.97h13.12ZM211.15,427.63l-2.68-3.68h-13.76c.31,1.56-.09,2.78-1.2,3.68h17.64ZM196.28,366.26c.49.48.88,1.03,1.15,1.66.28.63.54,1.33.78,2.11h5.91c.55-.72,1.15-1.39,1.8-2.02s1.28-1.21,1.89-1.75h-11.55ZM198.49,371.65c.06.66.08,1.32.05,1.97-.03.66-.11,1.32-.23,1.97h1.66c.37-.66.8-1.3,1.29-1.93.49-.63.98-1.3,1.48-2.02h-4.25Z"/><path class="cls-4" d="M310.71,427.45c.37,0,.65.12.83.36.18.24.28.51.28.81s-.09.57-.28.81c-.19.24-.49.36-.92.36h-42.86c-.49,0-.83-.13-1.02-.4-.18-.27-.28-.55-.28-.85s.12-.58.37-.85c.25-.27.58-.4,1.02-.4h5.36c.68,0,1.34-.09,1.99-.27s1.15-.51,1.52-.99c.37-.54.61-1.18.74-1.93.12-.75-.03-1.57-.46-2.47l-4.99-10.68h-24.11c-.18.84-.31,1.77-.37,2.78-.06,1.02-.05,2.05.05,3.1.09,1.05.28,2.09.55,3.14.28,1.05.63,1.96,1.06,2.74.55,1.02,1.09,1.83,1.62,2.42.52.6,1.15,1.06,1.89,1.39.74.33,1.62.54,2.63.63,1.02.09,2.23.13,3.65.13.37,0,.66.13.88.4.21.27.32.55.32.85s-.09.58-.28.85c-.18.27-.49.4-.92.4h-29.09c-.49,0-.88-.13-1.15-.4-.28-.27-.42-.55-.42-.85s.11-.58.32-.85c.22-.27.57-.4,1.06-.4,2.28,0,4.66-1.11,7.16-3.32,2.49-2.21,4.73-5.32,6.7-9.33l25.77-53.12c.55-1.13,1.14-1.13,1.75,0l28.91,58.77c.61,1.32,1.23,2.41,1.85,3.28.61.87,1.35,1.66,2.22,2.38,1.48,1.02,3.69,1.53,6.65,1.53ZM243.93,427.45c-.31-.9-.52-2.06-.65-3.5h-3.42c-.74.78-1.48,1.48-2.22,2.11s-1.45,1.09-2.12,1.39h8.41ZM244.12,418.12c-.55,1.26-1.51,2.63-2.86,4.13h2.03c.06-.6.14-1.26.23-1.97s.29-1.44.6-2.15ZM270.9,408.34l-10.81-22.79-10.99,22.79h21.8ZM275.71,387.44l-2.03-4.13h-12.38l1.85,4.13h12.56ZM272.75,381.7l-1.94-4.22h-6.93l-2.03,4.22h10.9ZM278.48,393.27l-2.03-4.22h-12.47l1.94,4.22h12.56ZM269.98,375.86l-2.68-5.65-2.59,5.65h5.26ZM281.25,399.01l-1.94-4.13h-12.65l1.94,4.13h12.65ZM284.11,404.84l-2.03-4.13h-12.65l1.94,4.13h12.75ZM286.97,410.59l-2.03-4.04h-12.84l1.94,4.04h12.93ZM289.74,416.42l-1.94-4.04h-13.02l1.94,4.04h13.02ZM292.7,422.25l-2.03-4.13h-13.12l1.2,2.42c.12.3.23.58.32.85.09.27.17.55.23.85h13.39ZM295.29,427.72l-1.85-3.77h-13.95c-.06.66-.22,1.29-.46,1.88-.25.6-.55,1.23-.92,1.88h17.18Z"/><path class="cls-4" d="M367.51,429.79l-14.13-31.67h-6.74v22.52c0,2.09.66,3.71,1.99,4.84,1.32,1.14,2.91,1.71,4.76,1.71h2.49c.43,0,.75.13.97.4.22.27.32.57.32.9s-.11.63-.32.9c-.22.27-.54.4-.97.4h-41.01c-.37,0-.66-.13-.88-.4-.22-.27-.32-.57-.32-.9s.11-.63.32-.9c.21-.27.51-.4.88-.4h5.73c1.79,0,3.31-.43,4.57-1.3,1.26-.87,1.89-2.44,1.89-4.71v-49.17c0-1.97-.57-3.39-1.71-4.26-1.14-.87-2.6-1.3-4.39-1.3h-6.47c-.43,0-.75-.13-.97-.4-.22-.27-.32-.55-.32-.85s.11-.58.32-.85c.21-.27.54-.4.97-.4h57.91c1.85,0,3.74.39,5.68,1.17,1.94.78,3.69,1.88,5.26,3.32s2.86,3.16,3.88,5.16c1.02,2,1.52,4.2,1.52,6.59s-.42,4.65-1.25,6.59c-.83,1.94-1.96,3.63-3.37,5.07-1.42,1.44-3.09,2.62-5.03,3.54-1.94.93-4.02,1.57-6.23,1.93l10.9,24.4c.8,1.74,1.71,3.08,2.72,4.04,1.02.96,2.42,1.44,4.2,1.44h3.05c.43,0,.75.13.97.4.21.27.32.57.32.9s-.11.63-.32.9c-.22.27-.54.4-.97.4h-26.23ZM342.39,427.63c-.99-.96-1.66-2.18-2.03-3.68h-11.45c-.25,1.38-.92,2.6-2.03,3.68h15.52ZM340.08,370.03v-3.86h-13.02c.98.78,1.63,2.06,1.94,3.86h11.08ZM340.08,375.86v-4.22h-10.9v4.22h10.9ZM340.08,381.7v-4.22h-10.9v4.22h10.9ZM340.08,387.44v-4.13h-10.9v4.13h10.9ZM340.08,393.27v-4.22h-10.9v4.22h10.9ZM340.08,399.01v-4.13h-10.9v4.13h10.9ZM340.08,404.84v-4.13h-10.9v4.13h10.9ZM340.08,410.59v-4.04h-10.9v4.04h10.9ZM340.08,416.42v-4.04h-10.9v4.04h10.9ZM340.08,422.25v-4.13h-10.9v4.13h10.9ZM366.96,380.71c0-2.39-.23-4.5-.69-6.33-.46-1.82-1.08-3.35-1.85-4.58-.77-1.23-1.66-2.14-2.68-2.74-1.02-.6-2.05-.9-3.09-.9h-12.01v29.61h6.37c2.15,0,4.09-.21,5.82-.63,1.72-.42,3.19-1.18,4.39-2.29,1.2-1.11,2.12-2.63,2.77-4.58.65-1.94.97-4.47.97-7.58ZM364.19,394.89c-2.28,1.79-5.17,2.81-8.68,3.05l.55,1.08h10.53l-1.11-2.24c2.09-.36,4.19-.99,6.28-1.88h-7.57ZM369.27,404.84l-1.94-4.13h-10.53l1.85,4.13h10.62ZM371.85,410.59l-1.85-4.04h-10.71l1.94,4.04h10.62ZM374.53,416.42l-1.94-4.04h-10.71l1.94,4.04h10.71ZM377.39,370.03c-1.05-1.2-2.28-2.14-3.69-2.83-1.42-.69-2.99-1.03-4.71-1.03h-4.99c1.29.9,2.31,2.18,3.05,3.86h10.34ZM377.21,422.25l-1.85-4.13h-10.9l1.85,4.13h10.9ZM368.16,389.05c-.31.84-.63,1.6-.97,2.29-.34.69-.75,1.33-1.25,1.93h9.05c.86-.54,1.66-1.15,2.4-1.84.74-.69,1.42-1.48,2.03-2.38h-11.27ZM379.61,427.63l-1.57-3.68h-10.99l1.66,3.68h10.9ZM380.81,375.86c-.49-1.55-1.17-2.96-2.03-4.22h-11.08c.31.66.51,1.33.6,2.02.09.69.2,1.42.32,2.2h12.19ZM368.99,383.31c0,.72-.03,1.42-.09,2.11-.06.69-.18,1.36-.37,2.02h11.82c.31-.66.55-1.3.74-1.93.18-.63.34-1.36.46-2.2h-12.56ZM381.64,381.7c0-.9-.03-1.67-.09-2.33-.06-.66-.18-1.29-.37-1.88h-12.28c.06.66.09,1.32.09,1.97v2.24h12.65Z"/><path class="cls-4" d="M454.51,429.79l-14.13-31.67h-6.74v22.52c0,2.09.66,3.71,1.99,4.84,1.32,1.14,2.91,1.71,4.76,1.71h2.49c.43,0,.75.13.97.4.22.27.32.57.32.9s-.11.63-.32.9c-.22.27-.54.4-.97.4h-41.01c-.37,0-.66-.13-.88-.4-.22-.27-.32-.57-.32-.9s.11-.63.32-.9c.21-.27.51-.4.88-.4h5.73c1.79,0,3.31-.43,4.57-1.3,1.26-.87,1.89-2.44,1.89-4.71v-49.17c0-1.97-.57-3.39-1.71-4.26-1.14-.87-2.6-1.3-4.39-1.3h-6.47c-.43,0-.75-.13-.97-.4-.22-.27-.32-.55-.32-.85s.11-.58.32-.85c.21-.27.54-.4.97-.4h57.91c1.85,0,3.74.39,5.68,1.17,1.94.78,3.69,1.88,5.26,3.32s2.86,3.16,3.88,5.16c1.02,2,1.52,4.2,1.52,6.59s-.42,4.65-1.25,6.59c-.83,1.94-1.96,3.63-3.37,5.07-1.42,1.44-3.09,2.62-5.03,3.54-1.94.93-4.02,1.57-6.23,1.93l10.9,24.4c.8,1.74,1.71,3.08,2.72,4.04,1.02.96,2.42,1.44,4.2,1.44h3.05c.43,0,.75.13.97.4.21.27.32.57.32.9s-.11.63-.32.9c-.22.27-.54.4-.97.4h-26.23ZM429.39,427.63c-.99-.96-1.66-2.18-2.03-3.68h-11.45c-.25,1.38-.92,2.6-2.03,3.68h15.52ZM427.08,370.03v-3.86h-13.02c.98.78,1.63,2.06,1.94,3.86h11.08ZM427.08,375.86v-4.22h-10.9v4.22h10.9ZM427.08,381.7v-4.22h-10.9v4.22h10.9ZM427.08,387.44v-4.13h-10.9v4.13h10.9ZM427.08,393.27v-4.22h-10.9v4.22h10.9ZM427.08,399.01v-4.13h-10.9v4.13h10.9ZM427.08,404.84v-4.13h-10.9v4.13h10.9ZM427.08,410.59v-4.04h-10.9v4.04h10.9ZM427.08,416.42v-4.04h-10.9v4.04h10.9ZM427.08,422.25v-4.13h-10.9v4.13h10.9ZM453.96,380.71c0-2.39-.23-4.5-.69-6.33-.46-1.82-1.08-3.35-1.85-4.58-.77-1.23-1.66-2.14-2.68-2.74-1.02-.6-2.05-.9-3.09-.9h-12.01v29.61h6.37c2.15,0,4.09-.21,5.82-.63,1.72-.42,3.19-1.18,4.39-2.29,1.2-1.11,2.12-2.63,2.77-4.58.65-1.94.97-4.47.97-7.58ZM451.19,394.89c-2.28,1.79-5.17,2.81-8.68,3.05l.55,1.08h10.53l-1.11-2.24c2.09-.36,4.19-.99,6.28-1.88h-7.57ZM456.27,404.84l-1.94-4.13h-10.53l1.85,4.13h10.62ZM458.86,410.59l-1.85-4.04h-10.71l1.94,4.04h10.62ZM461.53,416.42l-1.94-4.04h-10.71l1.94,4.04h10.71ZM464.4,370.03c-1.05-1.2-2.28-2.14-3.69-2.83-1.42-.69-2.99-1.03-4.71-1.03h-4.99c1.29.9,2.31,2.18,3.05,3.86h10.34ZM464.21,422.25l-1.85-4.13h-10.9l1.85,4.13h10.9ZM455.16,389.05c-.31.84-.63,1.6-.97,2.29-.34.69-.75,1.33-1.25,1.93h9.05c.86-.54,1.66-1.15,2.4-1.84.74-.69,1.42-1.48,2.03-2.38h-11.27ZM466.61,427.63l-1.57-3.68h-10.99l1.66,3.68h10.9ZM467.81,375.86c-.49-1.55-1.17-2.96-2.03-4.22h-11.08c.31.66.51,1.33.6,2.02.09.69.2,1.42.32,2.2h12.19ZM455.99,383.31c0,.72-.03,1.42-.09,2.11-.06.69-.18,1.36-.37,2.02h11.82c.31-.66.55-1.3.74-1.93.18-.63.34-1.36.46-2.2h-12.56ZM468.65,381.7c0-.9-.03-1.67-.09-2.33-.06-.66-.18-1.29-.37-1.88h-12.28c.06.66.09,1.32.09,1.97v2.24h12.65Z"/><path class="cls-4" d="M565.44,366.35c-1.91,0-3.62.55-5.13,1.66-1.51,1.11-2.77,2.57-3.79,4.4-1.02,1.83-1.79,3.96-2.31,6.42-.52,2.45-.79,5.02-.79,7.72v18.48c0,3.77-.59,7.3-1.75,10.59-1.17,3.29-2.91,6.15-5.22,8.57-2.31,2.42-5.2,4.32-8.68,5.7-3.48,1.38-7.53,2.06-12.15,2.06-3.88,0-7.48-.51-10.81-1.53-3.33-1.02-6.23-2.53-8.73-4.53-2.49-2-4.45-4.49-5.86-7.45-1.42-2.96-2.12-6.38-2.12-10.27v-36.16c0-1.97-.57-3.39-1.71-4.26-1.14-.87-2.6-1.3-4.39-1.3h-5.17c-.43,0-.75-.13-.97-.4-.22-.27-.32-.55-.32-.85s.11-.58.32-.85c.22-.27.54-.4.97-.4h43.41c.37,0,.66.13.88.4.21.27.32.55.32.85s-.11.58-.32.85c-.22.27-.51.4-.88.4h-4.9c-1.91,0-3.57.54-4.99,1.61-1.42,1.08-2.12,2.69-2.12,4.84v39.21c0,3.23.48,5.89,1.43,7.99.95,2.09,2.14,3.74,3.56,4.93,1.42,1.2,2.97,2.02,4.66,2.47,1.69.45,3.25.67,4.66.67,2.15,0,4.34-.52,6.56-1.57,2.22-1.04,4.23-2.53,6.05-4.44,1.82-1.91,3.29-4.22,4.43-6.91,1.14-2.69,1.71-5.68,1.71-8.97v-20.01c0-6.52-.97-11.47-2.91-14.85-1.94-3.38-4.76-5.07-8.45-5.07-.43,0-.77-.12-1.02-.36-.25-.24-.37-.52-.37-.85s.11-.61.32-.85c.21-.24.57-.36,1.06-.36h25.4c.43,0,.77.12,1.02.36.25.24.37.52.37.85s-.11.61-.32.85c-.22.24-.54.36-.97.36ZM498.11,366.17c.98.78,1.63,2.06,1.94,3.86h11.73c.12-.9.32-1.66.6-2.29s.6-1.15.97-1.57h-15.24ZM511.59,375.86v-4.22h-11.36v4.22h11.36ZM511.59,381.7v-4.22h-11.36v4.22h11.36ZM511.59,387.44v-4.13h-11.36v4.13h11.36ZM511.59,393.27v-4.22h-11.36v4.22h11.36ZM511.59,399.01v-4.13h-11.36v4.13h11.36ZM511.59,404.84v-4.13h-11.36v4.13h11.36ZM511.59,410.59v-4.04h-11.36v4.04h11.36ZM511.68,416.42l-.09-4.04h-10.99c.12.66.29,1.35.51,2.06.21.72.45,1.38.69,1.97h9.88ZM512.98,422.25c-.31-.54-.54-1.17-.69-1.88-.15-.72-.29-1.46-.42-2.24h-9.33c.37.72.8,1.44,1.29,2.15.49.72,1.02,1.38,1.57,1.97h7.57ZM519.81,429.16c-1.23-.66-2.35-1.39-3.37-2.2s-1.86-1.81-2.54-3.01h-6.74c3.39,2.99,7.6,4.73,12.65,5.2ZM546.6,366.17c.37.24.71.51,1.02.81.31.3.61.6.92.9h4.8c.12-.3.2-.6.23-.9.03-.3.11-.57.23-.81h-7.2ZM549.74,369.49c.92,1.56,1.66,3.65,2.22,6.28.12-1.02.26-2.06.42-3.14.15-1.08.32-2.12.51-3.14h-3.14Z"/><path class="cls-4" d="M641.08,410.05c0,4.25-.89,7.76-2.68,10.54-1.79,2.78-4.03,5.01-6.74,6.68-2.71,1.67-5.67,2.86-8.87,3.54-3.2.69-6.19,1.03-8.96,1.03s-5.39-.33-7.85-.99c-2.46-.66-4.79-1.52-6.97-2.6-2.19-1.08-4.23-2.27-6.14-3.59-1.91-1.31-3.66-2.63-5.26-3.95l-11.18,10.68c-.49.48-.83.66-1.02.54-.18-.12-.28-.48-.28-1.08v-26.2c0-.66.18-.96.55-.9.37.06.74.33,1.11.81,2.03,2.75,4.34,5.58,6.93,8.48,2.59,2.9,5.42,5.55,8.5,7.94,3.08,2.39,6.42,4.35,10.02,5.88s7.47,2.29,11.59,2.29c5.23,0,9.33-.94,12.28-2.83,2.96-1.88,4.43-4.17,4.43-6.86,0-3.05-1.45-5.4-4.34-7.04-2.9-1.64-6.99-2.83-12.28-3.54-2.53-.36-5.3-.69-8.31-.99-3.02-.3-6.19-.75-9.51-1.35-7.45-1.26-13.13-3.74-17.04-7.45-3.91-3.71-5.87-8.37-5.87-14,0-3.47.69-6.62,2.08-9.46,1.39-2.84,3.25-5.29,5.59-7.36,2.34-2.06,5.05-3.66,8.13-4.8,3.08-1.14,6.31-1.71,9.7-1.71,2.4,0,4.69.25,6.88.76,2.19.51,4.29,1.21,6.33,2.11,2.03.9,4,1.96,5.91,3.19,1.91,1.23,3.75,2.56,5.54,3.99l9.51-9.15c.49-.42.89-.52,1.2-.31.31.21.46.64.46,1.3v23.42c0,.66-.12,1-.37,1.03-.25.03-.55-.25-.92-.85-3.57-5.26-7.01-9.39-10.3-12.38-3.29-2.99-6.37-5.23-9.24-6.73-2.86-1.49-5.45-2.42-7.76-2.78-2.31-.36-4.29-.54-5.96-.54-1.79,0-3.62.19-5.5.58-1.88.39-3.6.99-5.17,1.79-1.57.81-2.86,1.84-3.88,3.1-1.02,1.26-1.52,2.72-1.52,4.4,0,1.08.23,2.06.69,2.96s1.29,1.74,2.49,2.51c1.2.78,2.85,1.53,4.94,2.24,2.09.72,4.74,1.41,7.94,2.06,1.66.36,3.46.7,5.4,1.03,1.94.33,3.91.67,5.91,1.03,2,.36,3.97.73,5.91,1.12,1.94.39,3.71.76,5.31,1.12,2.77.72,5.31,1.63,7.62,2.74,2.31,1.11,4.26,2.51,5.86,4.22,1.6,1.7,2.85,3.74,3.74,6.1.89,2.36,1.34,5.1,1.34,8.21ZM605.43,393.27v-.18c-1.05-.24-2.08-.45-3.09-.63s-1.99-.36-2.91-.54c-1.97-.42-3.82-.84-5.54-1.26-1.72-.42-3.29-.96-4.71-1.62h-13.67c-.31,0-.43.15-.37.45.06.3.2.67.42,1.12.21.45.48.91.79,1.39.31.48.55.9.74,1.26h28.35ZM585.76,387.44c-.92-.6-1.74-1.22-2.45-1.88-.71-.66-1.31-1.41-1.8-2.24h-6.37v2.96c0,.42.03.81.09,1.17h10.53ZM580.49,381.7c-.25-.72-.45-1.4-.6-2.06-.15-.66-.26-1.38-.32-2.15h-2.96c-.31.66-.57,1.32-.79,1.97-.22.66-.39,1.41-.51,2.24h5.17ZM583.54,420.99c-1.11-1.08-2.2-2.12-3.28-3.14-1.08-1.02-2.14-2.09-3.19-3.23v6.37h6.47ZM581.88,422.61h-4.8v4.84l4.8-4.84ZM580.03,372.01c-.31.36-.72.85-1.25,1.48-.52.63-1.03,1.42-1.52,2.38h2.22c0-.6.06-1.26.18-1.97.12-.72.25-1.35.37-1.88ZM629.17,399.01c-.92-.66-1.96-1.26-3.09-1.79-1.14-.54-2.39-.96-3.74-1.26-.86-.12-1.8-.27-2.82-.45s-2.14-.39-3.37-.63h-38.15c.62.78,1.25,1.51,1.89,2.2.65.69,1.4,1.33,2.26,1.93h47.01ZM634.06,404.84c-.43-.72-.89-1.44-1.39-2.15-.49-.72-1.05-1.38-1.66-1.97h-46.09c1.54.84,3.23,1.56,5.08,2.15,1.85.6,3.94,1.11,6.28,1.52.55.12,1.09.2,1.62.22.52.03,1.03.11,1.52.22h34.64ZM635.72,410.59c-.12-1.32-.46-2.66-1.02-4.04h-20.6v.18c2.83.48,5.36,1.03,7.57,1.66s4.09,1.36,5.63,2.2h8.4ZM629.63,374.25h-3.69c.68.6,1.31,1.18,1.89,1.75.58.57,1.19,1.09,1.8,1.57v-3.32ZM629.63,372.63v-3.32l-3.51,3.32h3.51ZM629.54,412.38c1.29,1.26,2.15,2.6,2.59,4.04h3.23c.19-.54.31-1.17.37-1.88.06-.72.09-1.44.09-2.15h-6.28ZM632.31,418.12c.06.3.09.75.09,1.35,0,.96-.15,1.95-.46,2.96.62-.66,1.19-1.33,1.71-2.02.52-.69.94-1.45,1.25-2.29h-2.59Z"/><path class="cls-4" d="M721.34,429.79h-71.12c-.43,0-.75-.13-.97-.4-.22-.27-.32-.57-.32-.9s.11-.63.32-.9c.21-.27.54-.4.97-.4h6.1c1.79,0,3.25-.42,4.39-1.26,1.14-.84,1.71-2.24,1.71-4.22v-49.71c0-1.97-.57-3.39-1.71-4.26-1.14-.87-2.6-1.3-4.39-1.3h-6.1c-.43,0-.75-.13-.97-.4-.22-.27-.32-.55-.32-.85s.11-.58.32-.85c.21-.27.54-.4.97-.4h70.47v22.25c0,1.02-.25,1.57-.74,1.66-.49.09-1.05-.34-1.66-1.3-1.29-2.09-2.88-4.34-4.76-6.73-1.88-2.39-3.94-4.59-6.19-6.59-2.25-2-4.6-3.68-7.07-5.02-2.46-1.35-4.9-2.02-7.3-2.02h-10.99v27.1h4.25c1.6,0,3.11-.33,4.53-.99,1.42-.66,2.74-1.52,3.97-2.6,1.23-1.08,2.34-2.29,3.33-3.63.98-1.35,1.85-2.68,2.59-3.99.25-.48.57-.7.97-.67.4.03.6.37.6,1.03v24.31c0,.66-.19,1-.55,1.03-.37.03-.71-.19-1.02-.67-.68-1.32-1.51-2.65-2.49-3.99-.99-1.35-2.09-2.56-3.33-3.63-1.23-1.08-2.57-1.96-4.02-2.65-1.45-.69-2.97-1.03-4.57-1.03h-4.25v31.85h9.97c2.52,0,5.13-.7,7.8-2.11,2.68-1.4,5.23-3.17,7.67-5.29,2.43-2.12,4.66-4.44,6.7-6.95,2.03-2.51,3.66-4.84,4.9-7,.61-1.08,1.15-1.57,1.62-1.48.46.09.69.64.69,1.66v23.33ZM675.44,427.63v-3.68h-11.08c-.37,1.5-1.05,2.72-2.03,3.68h13.12ZM675.44,370.03v-3.86h-13.02c.98.78,1.66,2.06,2.03,3.86h10.99ZM675.44,375.86v-4.22h-10.9v4.22h10.9ZM675.44,381.7v-4.22h-10.9v4.22h10.9ZM675.44,387.44v-4.13h-10.9v4.13h10.9ZM675.44,393.27v-4.22h-10.9v4.22h10.9ZM675.44,399.01v-4.13h-10.9v4.13h10.9ZM675.44,404.84v-4.13h-10.9v4.13h10.9ZM675.44,410.59v-4.04h-10.9v4.04h10.9ZM675.44,416.42v-4.04h-10.9v4.04h10.9ZM675.44,422.25v-4.13h-10.9v4.13h10.9ZM697.79,393.27v-4.22c-.43.66-.97,1.26-1.62,1.79-.65.54-1.28,1.02-1.89,1.44v.99h3.51ZM697.79,394.89h-3.51v1.97c.61.42,1.25.9,1.89,1.44s1.19,1.05,1.62,1.53v-4.93ZM714.14,427.63v-3.68h-7.85c-1.72,1.38-3.63,2.6-5.73,3.68h13.58ZM713.49,370.03v-3.77h-12.56c1.05.66,2.05,1.27,3,1.84.95.57,1.86,1.21,2.72,1.93h6.83ZM714.14,422.25v-5.74c-.99,1.08-1.96,2.09-2.91,3.05-.96.96-1.92,1.86-2.91,2.69h5.82ZM713.49,371.65h-4.8c.8.78,1.58,1.57,2.35,2.38.77.81,1.58,1.69,2.45,2.65v-5.02Z"/><path class="cls-4" d="M804.01,429.79h-71.4c-.43,0-.75-.13-.97-.4-.22-.27-.32-.57-.32-.9s.11-.63.32-.9c.21-.27.54-.4.97-.4h6.37c1.79,0,3.25-.42,4.39-1.26,1.14-.84,1.71-2.24,1.71-4.22v-49.71c0-1.97-.57-3.39-1.71-4.26-1.14-.87-2.6-1.3-4.39-1.3h-6.37c-.43,0-.75-.13-.97-.4-.22-.27-.32-.55-.32-.85s.11-.58.32-.85c.21-.27.54-.4.97-.4h45.26c.43,0,.75.13.97.4.22.27.32.55.32.85s-.11.58-.32.85c-.22.27-.54.4-.97.4h-6.37c-1.79,0-3.26.43-4.43,1.3-1.17.87-1.75,2.29-1.75,4.26v51.5c0,1.38.35,2.35,1.06,2.92.71.57,1.49.85,2.36.85h5.82c2.52,0,5.14-.69,7.85-2.06,2.71-1.38,5.28-3.09,7.71-5.16,2.43-2.06,4.66-4.34,6.7-6.82,2.03-2.48,3.66-4.8,4.89-6.95.62-1.08,1.15-1.57,1.62-1.48s.69.64.69,1.66v23.33ZM760.5,427.63c-.37-.36-.69-.87-.97-1.53-.28-.66-.51-1.38-.69-2.15h-11.91c-.31,1.5-.99,2.72-2.03,3.68h15.61ZM745.08,366.17c.98.78,1.63,2.06,1.94,3.86h11.82c.12-.9.34-1.66.65-2.29.31-.63.61-1.15.92-1.57h-15.33ZM758.75,375.86v-4.22h-11.54v4.22h11.54ZM758.75,381.7v-4.22h-11.54v4.22h11.54ZM758.75,387.44v-4.13h-11.54v4.13h11.54ZM758.75,393.27v-4.22h-11.54v4.22h11.54ZM758.75,399.01v-4.13h-11.54v4.13h11.54ZM758.75,404.84v-4.13h-11.54v4.13h11.54ZM758.75,410.59v-4.04h-11.54v4.04h11.54ZM758.75,416.42v-4.04h-11.54v4.04h11.54ZM758.75,422.25v-4.13h-11.54v4.13h11.54ZM796.8,427.63v-3.68h-7.85c-.86.66-1.77,1.3-2.72,1.93-.96.63-1.96,1.21-3,1.75h13.58ZM796.8,422.25v-5.74c-1.05,1.08-2.03,2.09-2.96,3.05-.92.96-1.85,1.86-2.77,2.69h5.73Z"/><path class="cls-4" d="M940.61,386.18c0,1.02-.25,1.57-.74,1.66-.49.09-1.05-.34-1.66-1.3-1.29-2.09-2.88-4.34-4.76-6.73-1.88-2.39-3.94-4.59-6.19-6.59-2.25-2-4.6-3.68-7.07-5.02-2.46-1.35-4.89-2.02-7.3-2.02h-10.9v27.1h4.25c1.54,0,3.02-.33,4.43-.99,1.42-.66,2.72-1.52,3.92-2.6,1.2-1.08,2.29-2.29,3.28-3.63.98-1.35,1.82-2.68,2.49-3.99.37-.48.72-.7,1.06-.67.34.03.51.37.51,1.03v24.31c0,.66-.17,1-.51,1.03-.34.03-.69-.19-1.06-.67-.68-1.32-1.51-2.65-2.49-3.99-.99-1.35-2.08-2.56-3.28-3.63-1.2-1.08-2.51-1.96-3.92-2.65-1.42-.69-2.9-1.03-4.43-1.03h-4.25v25.93c0,1.97.57,3.38,1.71,4.22,1.14.84,2.6,1.26,4.39,1.26h6.46c.43,0,.74.13.92.4s.28.57.28.9-.09.63-.28.9c-.18.27-.49.4-.92.4h-45.07c-.43,0-.75-.13-.97-.4-.22-.27-.32-.57-.32-.9s.11-.63.32-.9c.21-.27.54-.4.97-.4h6.1c1.79,0,3.25-.42,4.39-1.26,1.14-.84,1.71-2.24,1.71-4.22v-49.71c0-1.97-.57-3.39-1.71-4.26-1.14-.87-2.6-1.3-4.39-1.3h-6.1c-.43,0-.75-.13-.97-.4-.22-.27-.32-.55-.32-.85s.11-.58.32-.85c.21-.27.54-.4.97-.4h71.12v22.25ZM897.2,427.63c-.43-.36-.79-.87-1.06-1.53-.28-.66-.48-1.38-.6-2.15h-11.92c-.37,1.5-1.05,2.72-2.03,3.68h15.61ZM895.35,370.03v-3.86h-13.67c.98.78,1.66,2.06,2.03,3.86h11.64ZM895.35,375.86v-4.22h-11.54v4.22h11.54ZM895.35,381.7v-4.22h-11.54v4.22h11.54ZM895.35,387.44v-4.13h-11.54v4.13h11.54ZM895.35,393.27v-4.22h-11.54v4.22h11.54ZM895.35,399.01v-4.13h-11.54v4.13h11.54ZM895.35,404.84v-4.13h-11.54v4.13h11.54ZM895.35,410.59v-4.04h-11.54v4.04h11.54ZM895.35,416.42v-4.04h-11.54v4.04h11.54ZM895.35,422.25v-4.13h-11.54v4.13h11.54ZM917.61,393.63v-4.58c-.43.66-.97,1.26-1.62,1.79-.65.54-1.28,1.02-1.89,1.44v1.35h3.51ZM917.61,395.33h-3.51v1.53c.62.42,1.25.9,1.89,1.44s1.18,1.05,1.62,1.53v-4.49ZM933.4,370.03v-3.77h-12.47c1.05.66,2.03,1.27,2.96,1.84.92.57,1.82,1.21,2.68,1.93h6.83ZM933.4,371.65h-4.8c.86.78,1.66,1.57,2.4,2.38.74.81,1.54,1.69,2.4,2.65v-5.02Z"/><path class="cls-4" d="M1020.5,429.79h-71.12c-.43,0-.75-.13-.97-.4-.22-.27-.32-.57-.32-.9s.11-.63.32-.9.54-.4.97-.4h6.1c1.79,0,3.25-.42,4.39-1.26,1.14-.84,1.71-2.24,1.71-4.22v-49.71c0-1.97-.57-3.39-1.71-4.26-1.14-.87-2.6-1.3-4.39-1.3h-6.1c-.43,0-.75-.13-.97-.4s-.32-.55-.32-.85.11-.58.32-.85c.22-.27.54-.4.97-.4h70.47v22.25c0,1.02-.25,1.57-.74,1.66-.49.09-1.05-.34-1.66-1.3-1.29-2.09-2.88-4.34-4.76-6.73-1.88-2.39-3.94-4.59-6.19-6.59-2.25-2-4.6-3.68-7.07-5.02-2.46-1.35-4.9-2.02-7.3-2.02h-10.99v27.1h4.25c1.6,0,3.11-.33,4.53-.99,1.42-.66,2.74-1.52,3.97-2.6,1.23-1.08,2.34-2.29,3.33-3.63.98-1.35,1.85-2.68,2.59-3.99.25-.48.57-.7.97-.67.4.03.6.37.6,1.03v24.31c0,.66-.18,1-.55,1.03-.37.03-.71-.19-1.02-.67-.68-1.32-1.51-2.65-2.49-3.99-.99-1.35-2.09-2.56-3.32-3.63-1.23-1.08-2.57-1.96-4.02-2.65-1.45-.69-2.97-1.03-4.57-1.03h-4.25v31.85h9.98c2.52,0,5.13-.7,7.8-2.11,2.68-1.4,5.23-3.17,7.67-5.29,2.43-2.12,4.66-4.44,6.7-6.95,2.03-2.51,3.66-4.84,4.9-7,.62-1.08,1.15-1.57,1.62-1.48s.69.64.69,1.66v23.33ZM974.59,427.63v-3.68h-11.08c-.37,1.5-1.05,2.72-2.03,3.68h13.12ZM974.59,370.03v-3.86h-13.02c.98.78,1.66,2.06,2.03,3.86h10.99ZM974.59,375.86v-4.22h-10.9v4.22h10.9ZM974.59,381.7v-4.22h-10.9v4.22h10.9ZM974.59,387.44v-4.13h-10.9v4.13h10.9ZM974.59,393.27v-4.22h-10.9v4.22h10.9ZM974.59,399.01v-4.13h-10.9v4.13h10.9ZM974.59,404.84v-4.13h-10.9v4.13h10.9ZM974.59,410.59v-4.04h-10.9v4.04h10.9ZM974.59,416.42v-4.04h-10.9v4.04h10.9ZM974.59,422.25v-4.13h-10.9v4.13h10.9ZM996.95,393.27v-4.22c-.43.66-.97,1.26-1.62,1.79-.65.54-1.28,1.02-1.89,1.44v.99h3.51ZM996.95,394.89h-3.51v1.97c.62.42,1.25.9,1.89,1.44s1.18,1.05,1.62,1.53v-4.93ZM1013.29,427.63v-3.68h-7.85c-1.72,1.38-3.63,2.6-5.73,3.68h13.58ZM1012.65,370.03v-3.77h-12.56c1.05.66,2.05,1.27,3,1.84.95.57,1.86,1.21,2.72,1.93h6.83ZM1013.29,422.25v-5.74c-.99,1.08-1.96,2.09-2.91,3.05-.96.96-1.92,1.86-2.91,2.69h5.82ZM1012.65,371.65h-4.8c.8.78,1.58,1.57,2.36,2.38.77.81,1.58,1.69,2.45,2.65v-5.02Z"/><path class="cls-4" d="M1099.93,410.05c0,4.25-.89,7.76-2.68,10.54-1.79,2.78-4.03,5.01-6.74,6.68-2.71,1.67-5.67,2.86-8.87,3.54-3.2.69-6.19,1.03-8.96,1.03s-5.39-.33-7.85-.99c-2.46-.66-4.79-1.52-6.97-2.6-2.19-1.08-4.23-2.27-6.14-3.59-1.91-1.31-3.66-2.63-5.26-3.95l-11.18,10.68c-.49.48-.83.66-1.02.54-.19-.12-.28-.48-.28-1.08v-26.2c0-.66.18-.96.55-.9.37.06.74.33,1.11.81,2.03,2.75,4.34,5.58,6.93,8.48,2.59,2.9,5.42,5.55,8.5,7.94,3.08,2.39,6.42,4.35,10.02,5.88,3.6,1.53,7.47,2.29,11.59,2.29,5.23,0,9.33-.94,12.28-2.83,2.96-1.88,4.43-4.17,4.43-6.86,0-3.05-1.45-5.4-4.34-7.04-2.89-1.64-6.99-2.83-12.28-3.54-2.53-.36-5.3-.69-8.31-.99-3.02-.3-6.19-.75-9.51-1.35-7.45-1.26-13.13-3.74-17.04-7.45-3.91-3.71-5.86-8.37-5.86-14,0-3.47.69-6.62,2.08-9.46,1.38-2.84,3.25-5.29,5.59-7.36,2.34-2.06,5.05-3.66,8.13-4.8,3.08-1.14,6.31-1.71,9.7-1.71,2.4,0,4.69.25,6.88.76,2.19.51,4.29,1.21,6.33,2.11s4,1.96,5.91,3.19c1.91,1.23,3.75,2.56,5.54,3.99l9.51-9.15c.49-.42.89-.52,1.2-.31.31.21.46.64.46,1.3v23.42c0,.66-.12,1-.37,1.03-.25.03-.55-.25-.92-.85-3.57-5.26-7-9.39-10.3-12.38-3.29-2.99-6.37-5.23-9.24-6.73-2.86-1.49-5.45-2.42-7.76-2.78-2.31-.36-4.29-.54-5.96-.54-1.79,0-3.62.19-5.5.58-1.88.39-3.6.99-5.17,1.79-1.57.81-2.86,1.84-3.88,3.1-1.02,1.26-1.52,2.72-1.52,4.4,0,1.08.23,2.06.69,2.96s1.29,1.74,2.49,2.51c1.2.78,2.85,1.53,4.94,2.24,2.09.72,4.74,1.41,7.94,2.06,1.66.36,3.46.7,5.4,1.03,1.94.33,3.91.67,5.91,1.03,2,.36,3.97.73,5.91,1.12,1.94.39,3.71.76,5.31,1.12,2.77.72,5.31,1.63,7.62,2.74,2.31,1.11,4.26,2.51,5.87,4.22,1.6,1.7,2.85,3.74,3.74,6.1.89,2.36,1.34,5.1,1.34,8.21ZM1064.28,393.27v-.18c-1.05-.24-2.08-.45-3.09-.63s-1.99-.36-2.91-.54c-1.97-.42-3.82-.84-5.54-1.26-1.72-.42-3.29-.96-4.71-1.62h-13.67c-.31,0-.43.15-.37.45.06.3.2.67.42,1.12.22.45.48.91.79,1.39.31.48.55.9.74,1.26h28.35ZM1044.6,387.44c-.92-.6-1.74-1.22-2.45-1.88-.71-.66-1.31-1.41-1.8-2.24h-6.37v2.96c0,.42.03.81.09,1.17h10.53ZM1039.34,381.7c-.25-.72-.45-1.4-.6-2.06-.16-.66-.26-1.38-.32-2.15h-2.96c-.31.66-.57,1.32-.79,1.97-.22.66-.38,1.41-.51,2.24h5.17ZM1042.39,420.99c-1.11-1.08-2.2-2.12-3.28-3.14-1.08-1.02-2.14-2.09-3.19-3.23v6.37h6.46ZM1040.72,422.61h-4.8v4.84l4.8-4.84ZM1038.88,372.01c-.31.36-.72.85-1.25,1.48-.52.63-1.03,1.42-1.52,2.38h2.22c0-.6.06-1.26.18-1.97.12-.72.25-1.35.37-1.88ZM1088.01,399.01c-.92-.66-1.96-1.26-3.09-1.79-1.14-.54-2.39-.96-3.74-1.26-.86-.12-1.8-.27-2.82-.45-1.02-.18-2.14-.39-3.37-.63h-38.14c.61.78,1.25,1.51,1.89,2.2.65.69,1.4,1.33,2.26,1.93h47.01ZM1092.91,404.84c-.43-.72-.89-1.44-1.39-2.15-.49-.72-1.05-1.38-1.66-1.97h-46.09c1.54.84,3.23,1.56,5.08,2.15,1.85.6,3.94,1.11,6.28,1.52.55.12,1.09.2,1.62.22.52.03,1.03.11,1.52.22h34.64ZM1094.57,410.59c-.12-1.32-.46-2.66-1.02-4.04h-20.6v.18c2.83.48,5.36,1.03,7.57,1.66s4.09,1.36,5.63,2.2h8.41ZM1088.48,374.25h-3.69c.68.6,1.31,1.18,1.89,1.75.58.57,1.18,1.09,1.8,1.57v-3.32ZM1088.48,372.63v-3.32l-3.51,3.32h3.51ZM1088.38,412.38c1.29,1.26,2.16,2.6,2.59,4.04h3.23c.18-.54.31-1.17.37-1.88.06-.72.09-1.44.09-2.15h-6.28ZM1091.15,418.12c.06.3.09.75.09,1.35,0,.96-.15,1.95-.46,2.96.62-.66,1.18-1.33,1.71-2.02.52-.69.94-1.45,1.25-2.29h-2.59Z"/><path class="cls-4" d="M1179.36,392.73c0,.84-.26,1.24-.79,1.21-.52-.03-1-.49-1.43-1.39-1.29-2.93-2.68-5.8-4.16-8.61-1.48-2.81-3.05-5.38-4.71-7.72s-3.42-4.37-5.26-6.1c-1.85-1.73-3.82-2.99-5.91-3.77h-3.6v55.36c0,1.97.57,3.38,1.71,4.22,1.14.84,2.6,1.26,4.39,1.26h6.46c.43,0,.74.13.92.4s.28.57.28.9-.09.63-.28.9c-.18.27-.49.4-.92.4h-44.06c-.43,0-.75-.13-.97-.4-.22-.27-.32-.57-.32-.9s.11-.63.32-.9.54-.4.97-.4h5.73c1.79,0,3.26-.42,4.43-1.26,1.17-.84,1.75-2.24,1.75-4.22v-55.36h-3.6c-2.03.78-3.97,2.03-5.82,3.77-1.85,1.74-3.6,3.77-5.26,6.1s-3.23,4.91-4.71,7.72c-1.48,2.81-2.86,5.68-4.16,8.61-.43.96-.91,1.44-1.43,1.44s-.79-.42-.79-1.26v-28.8h71.21v28.8ZM1110,366.17v3.86h6c.55-.72,1.12-1.38,1.71-1.97.58-.6,1.18-1.22,1.8-1.88h-9.51ZM1110,371.65v7.09c1.35-2.45,2.92-4.81,4.71-7.09h-4.71ZM1148.69,427.63c-.43-.36-.78-.87-1.06-1.53-.28-.66-.48-1.38-.6-2.15h-11.27c-.37,1.5-1.02,2.72-1.94,3.68h14.87ZM1146.85,370.03v-3.68h-10.9v3.68h10.9ZM1146.85,375.86v-4.22h-10.9v4.22h10.9ZM1146.85,381.7v-4.22h-10.9v4.22h10.9ZM1146.85,387.44v-4.13h-10.9v4.13h10.9ZM1146.85,393.27v-4.22h-10.9v4.22h10.9ZM1146.85,399.01v-4.13h-10.9v4.13h10.9ZM1146.85,404.84v-4.13h-10.9v4.13h10.9ZM1146.85,410.59v-4.04h-10.9v4.04h10.9ZM1146.85,416.42v-4.04h-10.9v4.04h10.9ZM1146.85,422.25v-4.13h-10.9v4.13h10.9ZM1172.71,370.03v-3.86h-11.36c.68.54,1.38,1.12,2.12,1.75.74.63,1.51,1.33,2.31,2.11h6.93ZM1172.71,371.65h-5.36c.86,1.08,1.75,2.24,2.68,3.5.92,1.26,1.82,2.63,2.68,4.13v-7.63Z"/><path class="cls-4" d="M1188.13,429.79c-.43,0-.75-.13-.97-.4-.22-.27-.32-.57-.32-.9s.11-.63.32-.9c.21-.27.54-.4.97-.4h6.47c1.79,0,3.25-.42,4.39-1.26,1.14-.84,1.71-2.24,1.71-4.22v-49.71c0-1.97-.57-3.39-1.71-4.26-1.14-.87-2.6-1.3-4.39-1.3h-6.47c-.43,0-.75-.13-.97-.4-.22-.27-.32-.55-.32-.85s.11-.58.32-.85c.21-.27.54-.4.97-.4h44.7c.43,0,.75.13.97.4.21.27.32.55.32.85s-.11.58-.32.85c-.22.27-.54.4-.97.4h-6.46c-1.79,0-3.25.43-4.39,1.3-1.14.87-1.71,2.29-1.71,4.26v49.71c0,1.97.57,3.38,1.71,4.22,1.14.84,2.6,1.26,4.39,1.26h6.46c.43,0,.75.13.97.4.21.27.32.57.32.9s-.11.63-.32.9c-.22.27-.54.4-.97.4h-44.7ZM1215.47,427.63c-.43-.36-.77-.87-1.02-1.53-.25-.66-.46-1.38-.65-2.15h-11.27c-.31,1.5-.99,2.72-2.03,3.68h14.96ZM1200.69,366.17c.98.78,1.63,2.06,1.94,3.86h11.18c.25-1.73.77-3.02,1.57-3.86h-14.69ZM1213.72,375.86v-4.22h-10.9v4.22h10.9ZM1213.72,381.7v-4.22h-10.9v4.22h10.9ZM1213.72,387.44v-4.13h-10.9v4.13h10.9ZM1213.72,393.27v-4.22h-10.9v4.22h10.9ZM1213.72,399.01v-4.13h-10.9v4.13h10.9ZM1213.72,404.84v-4.13h-10.9v4.13h10.9ZM1213.72,410.59v-4.04h-10.9v4.04h10.9ZM1213.72,416.42v-4.04h-10.9v4.04h10.9ZM1213.72,422.25v-4.13h-10.9v4.13h10.9Z"/><path class="cls-4" d="M1316.05,366.35c-.92,0-1.99.37-3.19,1.12-1.2.75-2.43,1.75-3.69,3.01-1.26,1.26-2.51,2.74-3.74,4.44-1.23,1.7-2.31,3.54-3.23,5.52l-24.84,51.32c-.18.42-.45.64-.79.67-.34.03-.63-.17-.88-.58l-27.52-57.69c-1.05-2.09-2.33-3.93-3.83-5.52-1.51-1.58-3.34-2.38-5.5-2.38h-3.42c-.37,0-.65-.12-.83-.36-.18-.24-.28-.51-.28-.81s.11-.57.32-.81.51-.36.88-.36h43.32c.49,0,.85.12,1.06.36.21.24.32.52.32.85s-.14.61-.42.85c-.28.24-.63.36-1.06.36h-5.08c-1.6,0-2.76.76-3.46,2.29-.71,1.53-.54,3.42.51,5.7l15.7,33.74,11.08-23.06c.61-1.2,1.03-2.44,1.25-3.72.21-1.29.31-2.54.28-3.77-.03-1.23-.2-2.38-.51-3.45-.31-1.08-.68-2-1.11-2.78-.55-.96-1.11-1.76-1.66-2.42-.55-.66-1.19-1.17-1.89-1.53-.71-.36-1.56-.61-2.54-.76-.99-.15-2.19-.22-3.6-.22-.37,0-.66-.12-.88-.36-.22-.24-.34-.52-.37-.85-.03-.33.05-.61.23-.85s.52-.36,1.02-.36h28.26c.49,0,.86.12,1.11.36s.37.52.37.85-.12.61-.37.85c-.25.24-.59.36-1.02.36ZM1261.84,370.12c-.25-1.44-.25-2.75,0-3.95h-17.27c1.23.96,2.4,2.27,3.51,3.95h13.76ZM1263.87,375.95l-.46-1.17c-.19-.48-.39-.99-.6-1.53-.22-.54-.39-1.05-.51-1.53h-13.3c.12.18.23.39.32.63.09.24.2.48.32.72l1.39,2.87h12.84ZM1266.55,381.79l-1.85-4.22h-12.84l1.94,4.22h12.75ZM1269.32,387.44l-1.85-4.04h-12.93l2.03,4.04h12.75ZM1272.18,393.27l-2.03-4.22h-12.84l2.03,4.22h12.84ZM1274.95,399.1l-2.03-4.13h-12.75l1.94,4.13h12.84ZM1277.63,404.93l-1.94-4.13h-12.65l1.94,4.13h12.65ZM1280.31,410.77l-1.94-4.13h-12.56l1.94,4.13h12.56ZM1282.71,415.79l-1.66-3.32h-12.47l1.94,4.04h11.73l.46-.72ZM1281.51,418.3h-10.25l2.03,4.04h6.19l2.03-4.04ZM1278.55,424.04h-4.53l2.31,4.75,2.22-4.75ZM1295.73,366.17c.68.54,1.32,1.23,1.94,2.06h6.37c.18-.42.35-.79.51-1.12.15-.33.35-.64.6-.94h-9.42ZM1298.78,369.94c.31.66.58,1.32.83,1.97.25.66.43,1.23.55,1.7h2.03c.18-1.2.58-2.42,1.2-3.68h-4.62Z"/><path class="cls-4" d="M1379.13,427.45c.37,0,.65.12.83.36.18.24.28.51.28.81s-.09.57-.28.81-.49.36-.92.36h-42.86c-.49,0-.83-.13-1.02-.4-.18-.27-.28-.55-.28-.85s.12-.58.37-.85c.25-.27.58-.4,1.02-.4h5.36c.68,0,1.34-.09,1.99-.27s1.16-.51,1.52-.99c.37-.54.61-1.18.74-1.93.12-.75-.03-1.57-.46-2.47l-4.99-10.68h-24.11c-.19.84-.31,1.77-.37,2.78-.06,1.02-.05,2.05.05,3.1.09,1.05.28,2.09.55,3.14.28,1.05.63,1.96,1.06,2.74.55,1.02,1.09,1.83,1.62,2.42.52.6,1.15,1.06,1.89,1.39.74.33,1.62.54,2.63.63s2.23.13,3.65.13c.37,0,.66.13.88.4s.32.55.32.85-.09.58-.28.85c-.18.27-.49.4-.92.4h-29.09c-.49,0-.88-.13-1.15-.4-.28-.27-.42-.55-.42-.85s.11-.58.32-.85c.22-.27.57-.4,1.06-.4,2.28,0,4.66-1.11,7.16-3.32,2.49-2.21,4.72-5.32,6.7-9.33l25.77-53.12c.55-1.13,1.14-1.13,1.75,0l28.91,58.77c.61,1.32,1.23,2.41,1.85,3.28.62.87,1.35,1.66,2.22,2.38,1.48,1.02,3.69,1.53,6.65,1.53ZM1312.36,427.45c-.31-.9-.52-2.06-.65-3.5h-3.42c-.74.78-1.48,1.48-2.22,2.11-.74.63-1.45,1.09-2.12,1.39h8.41ZM1312.54,418.12c-.55,1.26-1.51,2.63-2.86,4.13h2.03c.06-.6.14-1.26.23-1.97.09-.72.29-1.44.6-2.15ZM1339.33,408.34l-10.81-22.79-10.99,22.79h21.8ZM1344.13,387.44l-2.03-4.13h-12.38l1.85,4.13h12.56ZM1341.17,381.7l-1.94-4.22h-6.93l-2.03,4.22h10.9ZM1346.9,393.27l-2.03-4.22h-12.47l1.94,4.22h12.56ZM1338.4,375.86l-2.68-5.65-2.59,5.65h5.26ZM1349.67,399.01l-1.94-4.13h-12.65l1.94,4.13h12.65ZM1352.53,404.84l-2.03-4.13h-12.65l1.94,4.13h12.75ZM1355.4,410.59l-2.03-4.04h-12.84l1.94,4.04h12.93ZM1358.17,416.42l-1.94-4.04h-13.02l1.94,4.04h13.02ZM1361.12,422.25l-2.03-4.13h-13.12l1.2,2.42c.12.3.23.58.32.85.09.27.17.55.23.85h13.39ZM1363.71,427.72l-1.85-3.77h-13.95c-.06.66-.22,1.29-.46,1.88s-.55,1.23-.92,1.88h17.18Z"/><path class="cls-4" d="M1454.13,429.79h-71.4c-.43,0-.75-.13-.97-.4-.22-.27-.32-.57-.32-.9s.11-.63.32-.9c.21-.27.54-.4.97-.4h6.37c1.79,0,3.25-.42,4.39-1.26,1.14-.84,1.71-2.24,1.71-4.22v-49.71c0-1.97-.57-3.39-1.71-4.26-1.14-.87-2.6-1.3-4.39-1.3h-6.37c-.43,0-.75-.13-.97-.4-.22-.27-.32-.55-.32-.85s.11-.58.32-.85c.21-.27.54-.4.97-.4h45.26c.43,0,.75.13.97.4.21.27.32.55.32.85s-.11.58-.32.85c-.22.27-.54.4-.97.4h-6.37c-1.79,0-3.26.43-4.43,1.3-1.17.87-1.75,2.29-1.75,4.26v51.5c0,1.38.35,2.35,1.06,2.92.71.57,1.49.85,2.36.85h5.82c2.52,0,5.14-.69,7.85-2.06,2.71-1.38,5.28-3.09,7.71-5.16,2.43-2.06,4.66-4.34,6.7-6.82,2.03-2.48,3.66-4.8,4.89-6.95.62-1.08,1.15-1.57,1.62-1.48s.69.64.69,1.66v23.33ZM1410.63,427.63c-.37-.36-.69-.87-.97-1.53-.28-.66-.51-1.38-.69-2.15h-11.91c-.31,1.5-.99,2.72-2.03,3.68h15.61ZM1395.2,366.17c.98.78,1.63,2.06,1.94,3.86h11.82c.12-.9.34-1.66.65-2.29.31-.63.62-1.15.92-1.57h-15.33ZM1408.87,375.86v-4.22h-11.54v4.22h11.54ZM1408.87,381.7v-4.22h-11.54v4.22h11.54ZM1408.87,387.44v-4.13h-11.54v4.13h11.54ZM1408.87,393.27v-4.22h-11.54v4.22h11.54ZM1408.87,399.01v-4.13h-11.54v4.13h11.54ZM1408.87,404.84v-4.13h-11.54v4.13h11.54ZM1408.87,410.59v-4.04h-11.54v4.04h11.54ZM1408.87,416.42v-4.04h-11.54v4.04h11.54ZM1408.87,422.25v-4.13h-11.54v4.13h11.54ZM1446.93,427.63v-3.68h-7.85c-.86.66-1.77,1.3-2.72,1.93-.96.63-1.96,1.21-3,1.75h13.58ZM1446.93,422.25v-5.74c-1.05,1.08-2.03,2.09-2.96,3.05-.92.96-1.85,1.86-2.77,2.69h5.73Z"/><path class="cls-4" d="M154.83,81.16h-12.67v-1.38c0-1.5.36-2.82,1.05-3.96.69-1.11,2.12-2.52,4.27-4.17,1.13-.87,1.93-1.56,2.34-2.07s.74-1.02.94-1.59c.19-.54.3-1.14.3-1.8,0-.9-.33-1.68-.99-2.34-.69-.66-1.49-.99-2.4-.99-.99,0-2.4.36-4.21,1.11l-1.18-2.52c1.98-.9,3.8-1.35,5.48-1.35,1.96,0,3.53.54,4.74,1.65,1.18,1.11,1.79,2.58,1.79,4.41,0,1.32-.44,2.64-1.35,3.93-.91,1.32-2.42,2.79-4.6,4.38-1.73,1.29-2.73,2.55-3.03,3.84h9.53v2.85Z"/><path class="cls-4" d="M171.36,81.16h-12.67v-1.38c0-1.5.36-2.82,1.05-3.96.69-1.11,2.12-2.52,4.27-4.17,1.13-.87,1.93-1.56,2.34-2.07s.74-1.02.94-1.59c.19-.54.3-1.14.3-1.8,0-.9-.33-1.68-.99-2.34-.69-.66-1.49-.99-2.4-.99-.99,0-2.4.36-4.21,1.11l-1.18-2.52c1.98-.9,3.8-1.35,5.48-1.35,1.96,0,3.53.54,4.74,1.65,1.18,1.11,1.79,2.58,1.79,4.41,0,1.32-.44,2.64-1.35,3.93-.91,1.32-2.42,2.79-4.6,4.38-1.73,1.29-2.73,2.55-3.03,3.84h9.53v2.85Z"/><path class="cls-4" d="M186.95,60.1l-8.01,21.45h-2.48l7.99-21.45h2.51Z"/><path class="cls-4" d="M202.73,79.93c-1.18,1.08-2.84,1.62-4.9,1.62-1.96,0-3.53-.54-4.74-1.65s-1.82-2.55-1.82-4.38,1.02-3.51,3.03-4.89l.74-.51-.22-.12c-2.09-1.14-3.08-2.79-3.08-4.74,0-1.5.55-2.73,1.68-3.72,1.13-.96,2.59-1.44,4.43-1.44s3.25.45,4.38,1.38c1.13.93,1.68,2.1,1.68,3.51,0,1.77-1.07,3.3-3.25,4.65l-.28.21.69.42c2.31,1.41,3.42,3.21,3.42,5.16s-.58,3.45-1.76,4.5ZM198.19,72.19l-.63-.39-.69.48c-1.51,1.05-2.29,2.13-2.29,3.24,0,.99.3,1.77.94,2.34s1.4.87,2.34.87,1.76-.3,2.34-.87c.58-.57.85-1.35.85-2.34,0-1.05-.96-2.16-2.86-3.33ZM199.87,63.55c-.58-.45-1.27-.66-2.07-.66s-1.46.21-1.98.66c-.52.45-.77,1.02-.77,1.77,0,.9.94,1.89,2.81,3,1.93-1.29,2.89-2.28,2.89-3.03,0-.69-.3-1.29-.88-1.74Z"/><path class="cls-4" d="M235.95,71.77h-9.09v-2.4h9.09v2.4Z"/><path class="cls-4" d="M270.52,81.16h-12.67v-1.38c0-1.5.36-2.82,1.05-3.96.69-1.11,2.12-2.52,4.27-4.17,1.13-.87,1.93-1.56,2.34-2.07s.74-1.02.94-1.59c.19-.54.3-1.14.3-1.8,0-.9-.33-1.68-.99-2.34-.69-.66-1.49-.99-2.4-.99-.99,0-2.4.36-4.21,1.11l-1.18-2.52c1.98-.9,3.8-1.35,5.48-1.35,1.96,0,3.53.54,4.74,1.65,1.18,1.11,1.79,2.58,1.79,4.41,0,1.32-.44,2.64-1.35,3.93-.91,1.32-2.42,2.79-4.6,4.38-1.73,1.29-2.73,2.55-3.03,3.84h9.53v2.85Z"/><path class="cls-4" d="M288.06,76.84h-2.84v4.32h-3.19v-4.32h-8.35v-2.46l8.21-13.89h3.33v13.35h2.84v3ZM282.03,73.87v-9.03l-5.34,9.03h5.34Z"/><path class="cls-4" d="M302.64,60.1l-8.01,21.45h-2.48l7.99-21.45h2.51Z"/><path class="cls-4" d="M318.42,79.93c-1.18,1.08-2.84,1.62-4.9,1.62-1.96,0-3.53-.54-4.74-1.65s-1.82-2.55-1.82-4.38,1.02-3.51,3.03-4.89l.74-.51-.22-.12c-2.09-1.14-3.08-2.79-3.08-4.74,0-1.5.55-2.73,1.68-3.72,1.13-.96,2.59-1.44,4.43-1.44s3.25.45,4.38,1.38c1.13.93,1.68,2.1,1.68,3.51,0,1.77-1.07,3.3-3.25,4.65l-.28.21.69.42c2.31,1.41,3.42,3.21,3.42,5.16s-.58,3.45-1.76,4.5ZM313.88,72.19l-.63-.39-.69.48c-1.51,1.05-2.29,2.13-2.29,3.24,0,.99.3,1.77.94,2.34s1.4.87,2.34.87,1.76-.3,2.34-.87c.58-.57.85-1.35.85-2.34,0-1.05-.96-2.16-2.86-3.33ZM315.56,63.55c-.58-.45-1.27-.66-2.07-.66s-1.46.21-1.98.66c-.52.45-.77,1.02-.77,1.77,0,.9.94,1.89,2.81,3,1.93-1.29,2.89-2.28,2.89-3.03,0-.69-.3-1.29-.88-1.74Z"/><path class="cls-4" d="M351.64,71.77h-9.09v-2.4h9.09v2.4Z"/><path class="cls-4" d="M386.21,81.16h-12.67v-1.38c0-1.5.36-2.82,1.05-3.96.69-1.11,2.12-2.52,4.27-4.17,1.13-.87,1.93-1.56,2.34-2.07s.74-1.02.94-1.59c.19-.54.3-1.14.3-1.8,0-.9-.33-1.68-.99-2.34-.69-.66-1.49-.99-2.4-.99-.99,0-2.4.36-4.21,1.11l-1.18-2.52c1.98-.9,3.8-1.35,5.48-1.35,1.96,0,3.53.54,4.74,1.65,1.18,1.11,1.79,2.58,1.79,4.41,0,1.32-.44,2.64-1.35,3.93-.91,1.32-2.42,2.79-4.6,4.38-1.73,1.29-2.73,2.55-3.03,3.84h9.53v2.85Z"/><path class="cls-4" d="M401.63,78.67c-1.16,1.92-2.78,2.88-4.85,2.88s-3.69-.96-4.85-2.88c-1.16-1.89-1.74-4.5-1.74-7.83s.58-6.06,1.71-7.95c1.13-1.86,2.75-2.79,4.87-2.79s3.75.93,4.88,2.79c1.13,1.89,1.71,4.53,1.71,7.95s-.58,5.94-1.74,7.83ZM399.29,64.78c-.52-1.14-1.38-1.71-2.51-1.71s-1.96.57-2.48,1.71c-.52,1.14-.8,3.15-.8,6.06s.28,4.86.8,6c.52,1.17,1.35,1.74,2.48,1.74s1.98-.57,2.51-1.71c.52-1.14.77-3.15.77-6.03s-.25-4.92-.77-6.06Z"/><path class="cls-4" d="M419.26,81.16h-12.67v-1.38c0-1.5.36-2.82,1.05-3.96.69-1.11,2.12-2.52,4.27-4.17,1.13-.87,1.93-1.56,2.34-2.07s.74-1.02.94-1.59c.19-.54.3-1.14.3-1.8,0-.9-.33-1.68-.99-2.34-.69-.66-1.49-.99-2.4-.99-.99,0-2.4.36-4.21,1.11l-1.18-2.52c1.98-.9,3.8-1.35,5.48-1.35,1.96,0,3.53.54,4.74,1.65,1.18,1.11,1.79,2.58,1.79,4.41,0,1.32-.44,2.64-1.35,3.93-.91,1.32-2.42,2.79-4.6,4.38-1.73,1.29-2.73,2.55-3.03,3.84h9.53v2.85Z"/><path class="cls-4" d="M436.81,76.84h-2.84v4.32h-3.19v-4.32h-8.35v-2.46l8.21-13.89h3.33v13.35h2.84v3ZM430.78,73.87v-9.03l-5.34,9.03h5.34Z"/><path class="cls-4" d="M1263.1,79.21h-3.63l-5.34-8.76h-1.98v8.76h-3.17v-20.67h4.71c2.07,0,3.75.51,5.04,1.5,1.27.99,1.9,2.37,1.9,4.11,0,2.25-1.18,4.02-3.58,5.31l6.06,9.75ZM1256.19,62.14c-.74-.51-1.6-.78-2.62-.78h-1.43v6.27h1.32c1.07,0,1.98-.33,2.73-.96.74-.63,1.1-1.47,1.1-2.49,0-.84-.36-1.53-1.1-2.04Z"/><path class="cls-4" d="M1276.71,79.21h-11.02v-20.67h10.93v2.97h-7.77v5.16h7.46v2.82h-7.46v6.75h7.85v2.97Z"/><path class="cls-4" d="M1293.87,61.51h-7.99v5.58h7.02v2.82h-7.02v9.3h-3.17v-20.67h11.16v2.97Z"/><path class="cls-4" d="M1308.96,77.92c-1.32,1.11-3.06,1.68-5.23,1.68-1.18,0-2.18-.12-2.97-.33-.83-.21-1.65-.57-2.48-1.08l1.05-2.97c1.46,1.05,2.89,1.56,4.3,1.56,1.24,0,2.23-.27,3-.81.77-.54,1.16-1.29,1.16-2.28,0-.57-.25-1.14-.72-1.68-.5-.54-1.4-1.17-2.7-1.86l-2.09-1.11c-1.46-.78-2.48-1.59-3.06-2.46-.61-.87-.91-1.86-.91-3.03,0-1.62.61-2.94,1.82-3.93,1.21-.99,2.81-1.47,4.79-1.47,1.51,0,3.3.3,5.37.9l-1.07,2.94c-.58-.27-1.32-.51-2.18-.72-.88-.21-1.57-.3-2.09-.3-1.07,0-1.9.21-2.51.66-.63.45-.94,1.05-.94,1.83,0,.48.19.93.55,1.35.36.45,1.05.93,2.07,1.5l1.82.99c1.54.84,2.59,1.56,3.19,2.13s1.05,1.17,1.35,1.8c.3.63.44,1.35.44,2.1,0,1.95-.66,3.48-1.96,4.59Z"/><path class="cls-4" d="M1327.09,79.21h-3.17v-10.11h-5.67v10.11h-3.17v-20.67h3.17v7.74h5.67v-7.74h3.17v20.67Z"/><path class="cls-4" d="M1334.78,73l-1.6,6.21h-3.28l6.09-20.67h3.28l5.98,20.67h-3.2l-1.62-6.21h-5.65ZM1339.68,70.18l-2.06-7.95-2.09,7.95h4.16Z"/><path class="cls-4" d="M1359.48,79.21h-10.36v-20.67h3.17v17.85h7.19v2.82Z"/><path class="cls-4" d="M1375.87,79.21h-11.02v-20.67h10.93v2.97h-7.77v5.16h7.46v2.82h-7.46v6.75h7.85v2.97Z"/><path class="cls-4" d="M1391.96,76.78c-1.16,1.92-2.78,2.88-4.85,2.88-1.07,0-2.01-.27-2.84-.78-.03,0-.3.69-.85,2.04h-3l1.76-4.26c-1.1-1.89-1.65-4.47-1.65-7.77s.58-6.12,1.71-8.01c1.13-1.86,2.75-2.79,4.88-2.79.99,0,1.82.18,2.48.54l.77-1.92h3.03l-1.6,3.87c1.27,1.83,1.9,4.62,1.9,8.31,0,3.33-.58,5.97-1.73,7.89ZM1388.43,61.39c-.41-.21-.85-.3-1.32-.3-1.18,0-2.01.54-2.51,1.65-.52,1.11-.77,3.15-.77,6.15,0,1.2.05,2.31.17,3.3l4.43-10.8ZM1390.11,64.66l-4.71,11.4c.44.39,1.02.6,1.71.6,1.18,0,2.01-.54,2.53-1.65.5-1.11.74-3.15.74-6.12,0-1.83-.08-3.24-.28-4.23Z"/><path class="cls-4" d="M1408.93,79.21h-11.02v-20.67h10.93v2.97h-7.77v5.16h7.46v2.82h-7.46v6.75h7.85v2.97Z"/><path class="cls-4" d="M1426.53,79.21h-3.03l-5.92-13.05-.85-2.37.3,4.77v10.65h-3.06v-20.67h3.11l6.14,13.56.61,1.86-.36-4.02v-11.4h3.06v20.67Z"/><rect class="cls-1" x="112" y="24" width="1363" height="432"/><path class="cls-2" d="M990,125l-200.71,128.15-203.29-128.15h404Z"/><path class="cls-2" d="M990,154.43l-200.71,128.15-203.29-128.15h404Z"/><path class="cls-2" d="M990,183.85l-200.71,128.15-203.29-128.15h404Z"/><path class="cls-5" d="M58,334c0-5.8,7.87-10.5,17.58-10.5s17.58,4.7,17.58,10.5-7.87,10.5-17.58,10.5-17.58-4.7-17.58-10.5"/><path class="cls-5" d="M60.01,304c0-5.8,7.87-10.5,17.58-10.5s17.58,4.7,17.58,10.5-7.87,10.5-17.58,10.5-17.58-4.7-17.58-10.5"/><path class="cls-5" d="M60.01,274c0-5.8,7.87-10.5,17.58-10.5s17.58,4.7,17.58,10.5-7.87,10.5-17.58,10.5-17.58-4.7-17.58-10.5"/><path class="cls-5" d="M60.01,244c0-5.8,7.87-10.5,17.58-10.5s17.58,4.7,17.58,10.5-7.87,10.5-17.58,10.5-17.58-4.7-17.58-10.5"/><path class="cls-5" d="M58,214c0-5.8,7.87-10.5,17.58-10.5s17.58,4.7,17.58,10.5-7.87,10.5-17.58,10.5-17.58-4.7-17.58-10.5"/><path class="cls-5" d="M60.01,184c0-5.8,7.87-10.5,17.58-10.5s17.58,4.7,17.58,10.5-7.87,10.5-17.58,10.5-17.58-4.7-17.58-10.5"/><path class="cls-5" d="M60.01,154c0-5.8,7.87-10.5,17.58-10.5s17.58,4.7,17.58,10.5-7.87,10.5-17.58,10.5-17.58-4.7-17.58-10.5"/><path class="cls-5" d="M58,124c0-5.8,7.87-10.5,17.58-10.5s17.58,4.7,17.58,10.5-7.87,10.5-17.58,10.5-17.58-4.7-17.58-10.5"/><path class="cls-5" d="M60.01,94c0-5.8,7.87-10.5,17.58-10.5s17.58,4.7,17.58,10.5-7.87,10.5-17.58,10.5-17.58-4.7-17.58-10.5"/><path class="cls-5" d="M60.01,64c0-5.8,7.87-10.5,17.58-10.5s17.58,4.7,17.58,10.5-7.87,10.5-17.58,10.5-17.58-4.7-17.58-10.5"/><path class="cls-5" d="M58,34c0-5.8,7.87-10.5,17.58-10.5s17.58,4.7,17.58,10.5-7.87,10.5-17.58,10.5-17.58-4.7-17.58-10.5"/><path class="cls-5" d="M58.5,363.56c0-5.8,7.87-10.5,17.58-10.5s17.58,4.7,17.58,10.5-7.87,10.5-17.58,10.5-17.58-4.7-17.58-10.5"/><path class="cls-5" d="M58.5,393.56c0-5.8,7.87-10.5,17.58-10.5s17.58,4.7,17.58,10.5-7.87,10.5-17.58,10.5-17.58-4.7-17.58-10.5"/><path class="cls-5" d="M58.5,423.56c0-5.8,7.87-10.5,17.58-10.5s17.58,4.7,17.58,10.5-7.87,10.5-17.58,10.5-17.58-4.7-17.58-10.5"/><path class="cls-5" d="M58.5,450.56c0-5.8,7.87-10.5,17.58-10.5s17.58,4.7,17.58,10.5-7.87,10.5-17.58,10.5-17.58-4.7-17.58-10.5"/><path class="cls-5" d="M1523.93,337.34c0,5.8-7.88,10.5-17.6,10.5s-17.6-4.7-17.6-10.5"/><path class="cls-5" d="M1488.72,337.34c0-5.8,7.88-10.5,17.6-10.5s17.6,4.7,17.6,10.5"/><path class="cls-5" d="M1525.94,307.34c0,5.8-7.88,10.5-17.6,10.5s-17.6-4.7-17.6-10.5"/><path class="cls-5" d="M1490.74,307.34c0-5.8,7.88-10.5,17.6-10.5s17.6,4.7,17.6,10.5"/><path class="cls-5" d="M1525.94,277.34c0,5.8-7.88,10.5-17.6,10.5s-17.6-4.7-17.6-10.5"/><path class="cls-5" d="M1490.74,277.34c0-5.8,7.88-10.5,17.6-10.5s17.6,4.7,17.6,10.5"/><path class="cls-5" d="M1525.94,247.34c0,5.8-7.88,10.5-17.6,10.5s-17.6-4.7-17.6-10.5"/><path class="cls-5" d="M1490.74,247.34c0-5.8,7.88-10.5,17.6-10.5s17.6,4.7,17.6,10.5"/><path class="cls-5" d="M1523.93,217.34c0,5.8-7.88,10.5-17.6,10.5s-17.6-4.7-17.6-10.5"/><path class="cls-5" d="M1488.72,217.34c0-5.8,7.88-10.5,17.6-10.5s17.6,4.7,17.6,10.5"/><path class="cls-5" d="M1525.94,187.34c0,5.8-7.88,10.5-17.6,10.5s-17.6-4.7-17.6-10.5"/><path class="cls-5" d="M1490.74,187.34c0-5.8,7.88-10.5,17.6-10.5s17.6,4.7,17.6,10.5"/><path class="cls-5" d="M1525.94,157.34c0,5.8-7.88,10.5-17.6,10.5s-17.6-4.7-17.6-10.5"/><path class="cls-5" d="M1490.74,157.34c0-5.8,7.88-10.5,17.6-10.5s17.6,4.7,17.6,10.5"/><path class="cls-5" d="M1523.93,127.34c0,5.8-7.88,10.5-17.6,10.5s-17.6-4.7-17.6-10.5"/><path class="cls-5" d="M1488.72,127.34c0-5.8,7.88-10.5,17.6-10.5s17.6,4.7,17.6,10.5"/><path class="cls-5" d="M1525.94,97.34c0,5.8-7.88,10.5-17.6,10.5s-17.6-4.7-17.6-10.5"/><path class="cls-5" d="M1490.74,97.34c0-5.8,7.88-10.5,17.6-10.5s17.6,4.7,17.6,10.5"/><path class="cls-5" d="M1525.94,67.34c0,5.8-7.88,10.5-17.6,10.5s-17.6-4.7-17.6-10.5"/><path class="cls-5" d="M1490.74,67.34c0-5.8,7.88-10.5,17.6-10.5s17.6,4.7,17.6,10.5"/><path class="cls-5" d="M1523.93,37.34c0,5.8-7.88,10.5-17.6,10.5s-17.6-4.7-17.6-10.5"/><path class="cls-5" d="M1488.72,37.34c0-5.8,7.88-10.5,17.6-10.5s17.6,4.7,17.6,10.5"/><path class="cls-5" d="M1524.43,366.9c0,5.8-7.88,10.5-17.6,10.5s-17.6-4.7-17.6-10.5"/><path class="cls-5" d="M1489.22,366.9c0-5.8,7.88-10.5,17.6-10.5s17.6,4.7,17.6,10.5"/><path class="cls-5" d="M1524.43,396.9c0,5.8-7.88,10.5-17.6,10.5s-17.6-4.7-17.6-10.5"/><path class="cls-5" d="M1489.22,396.9c0-5.8,7.88-10.5,17.6-10.5s17.6,4.7,17.6,10.5"/><path class="cls-5" d="M1524.43,426.9c0,5.8-7.88,10.5-17.6,10.5s-17.6-4.7-17.6-10.5"/><path class="cls-5" d="M1489.22,426.9c0-5.8,7.88-10.5,17.6-10.5s17.6,4.7,17.6,10.5"/><path class="cls-5" d="M1526,454.92c0,5.8-7.88,10.5-17.6,10.5s-17.6-4.7-17.6-10.5"/><path class="cls-5" d="M1490.79,454.92c0-5.8,7.88-10.5,17.6-10.5s17.6,4.7,17.6,10.5"/></svg>